<svg xmlns="http://www.w3.org/2000/svg" viewBox="0 0 240 240" width="240" height="240">
  <g fill="none" stroke="#2A2A2A" stroke-width="1.4" stroke-linecap="round" stroke-linejoin="round">
    
    <path d="M64 130 Q60 70 120 60 Q180 70 176 130 L176 156 L64 156 Z" fill="#1A1A1A"></path>
    
    <path d="M62 156 L178 156 L182 188 L58 188 Z" fill="#1A1A1A"></path>
    <line x1="62" y1="156" x2="178" y2="156" stroke-width="0.9"></line>
    
    <line x1="66" y1="160" x2="66" y2="184" stroke="#2A2A2A" stroke-width="0.8" opacity="0.5"></line>
    <line x1="72" y1="160" x2="72" y2="184" stroke="#2A2A2A" stroke-width="0.8" opacity="0.5"></line>
    <line x1="78" y1="160" x2="78" y2="184" stroke="#2A2A2A" stroke-width="0.8" opacity="0.5"></line>
    <line x1="84" y1="160" x2="84" y2="184" stroke="#2A2A2A" stroke-width="0.8" opacity="0.5"></line>
    <line x1="90" y1="160" x2="90" y2="184" stroke="#2A2A2A" stroke-width="0.8" opacity="0.5"></line>
    <line x1="96" y1="160" x2="96" y2="184" stroke="#2A2A2A" stroke-width="0.8" opacity="0.5"></line>
    <line x1="102" y1="160" x2="102" y2="184" stroke="#2A2A2A" stroke-width="0.8" opacity="0.5"></line>
    <line x1="108" y1="160" x2="108" y2="184" stroke="#2A2A2A" stroke-width="0.8" opacity="0.5"></line>
    <line x1="114" y1="160" x2="114" y2="184" stroke="#2A2A2A" stroke-width="0.8" opacity="0.5"></line>
    <line x1="120" y1="160" x2="120" y2="184" stroke="#2A2A2A" stroke-width="0.8" opacity="0.5"></line>
    <line x1="126" y1="160" x2="126" y2="184" stroke="#2A2A2A" stroke-width="0.8" opacity="0.5"></line>
    <line x1="132" y1="160" x2="132" y2="184" stroke="#2A2A2A" stroke-width="0.8" opacity="0.5"></line>
    <line x1="138" y1="160" x2="138" y2="184" stroke="#2A2A2A" stroke-width="0.8" opacity="0.5"></line>
    <line x1="144" y1="160" x2="144" y2="184" stroke="#2A2A2A" stroke-width="0.8" opacity="0.5"></line>
    <line x1="150" y1="160" x2="150" y2="184" stroke="#2A2A2A" stroke-width="0.8" opacity="0.5"></line>
    <line x1="156" y1="160" x2="156" y2="184" stroke="#2A2A2A" stroke-width="0.8" opacity="0.5"></line>
    <line x1="162" y1="160" x2="162" y2="184" stroke="#2A2A2A" stroke-width="0.8" opacity="0.5"></line>
    <line x1="168" y1="160" x2="168" y2="184" stroke="#2A2A2A" stroke-width="0.8" opacity="0.5"></line>
    <line x1="174" y1="160" x2="174" y2="184" stroke="#2A2A2A" stroke-width="0.8" opacity="0.5"></line>
    
    <line x1="72" y1="80" x2="72" y2="150" stroke="#2A2A2A" stroke-width="0.8" opacity="0.3"></line>
    <line x1="82" y1="80" x2="82" y2="150" stroke="#2A2A2A" stroke-width="0.8" opacity="0.3"></line>
    <line x1="92" y1="80" x2="92" y2="150" stroke="#2A2A2A" stroke-width="0.8" opacity="0.3"></line>
    <line x1="102" y1="80" x2="102" y2="150" stroke="#2A2A2A" stroke-width="0.8" opacity="0.3"></line>
    <line x1="112" y1="80" x2="112" y2="150" stroke="#2A2A2A" stroke-width="0.8" opacity="0.3"></line>
    <line x1="122" y1="80" x2="122" y2="150" stroke="#2A2A2A" stroke-width="0.8" opacity="0.3"></line>
    <line x1="132" y1="80" x2="132" y2="150" stroke="#2A2A2A" stroke-width="0.8" opacity="0.3"></line>
    <line x1="142" y1="80" x2="142" y2="150" stroke="#2A2A2A" stroke-width="0.8" opacity="0.3"></line>
    <line x1="152" y1="80" x2="152" y2="150" stroke="#2A2A2A" stroke-width="0.8" opacity="0.3"></line>
    <line x1="162" y1="80" x2="162" y2="150" stroke="#2A2A2A" stroke-width="0.8" opacity="0.3"></line>
    <line x1="172" y1="80" x2="172" y2="150" stroke="#2A2A2A" stroke-width="0.8" opacity="0.3"></line>
  </g>
</svg>