<svg xmlns="http://www.w3.org/2000/svg" viewBox="0 0 240 240" width="240" height="240">
  <g fill="none" stroke="#2A2A2A" stroke-width="1.4" stroke-linecap="round" stroke-linejoin="round">
    
    <path d="M50 92 Q56 78 76 70 L92 64 Q108 60 120 60 Q132 60 148 64 L164 70 Q184 78 190 92 L208 210 L172 218 L172 222 L68 222 L68 218 L32 210 Z" fill="#1A1A1A"></path>
    
    <path d="M88 64 Q90 36 120 32 Q150 36 152 64 Q140 72 120 72 Q100 72 88 64 Z" fill="#1A1A1A"></path>
    
    <path d="M90 50 Q120 56 150 50" stroke-width="0.9" opacity="0.7"></path>
    
    <path d="M44 88 Q88 92 120 90 Q152 92 196 88" stroke-width="1" opacity="0.85"></path>
    <path d="M44 116 Q88 120 120 118 Q152 120 196 116" stroke-width="1" opacity="0.85"></path>
    <path d="M44 144 Q88 148 120 146 Q152 148 196 144" stroke-width="1" opacity="0.85"></path>
    <path d="M44 172 Q88 176 120 174 Q152 176 196 172" stroke-width="1" opacity="0.85"></path>
    <path d="M44 200 Q88 204 120 202 Q152 204 196 200" stroke-width="1" opacity="0.85"></path>
    
    <line x1="120" y1="64" x2="120" y2="220" stroke-width="1.2"></line>
    
    <g stroke="#2A2A2A" stroke-width="0.4" opacity="0.65">
      <line x1="118" y1="68" x2="122" y2="68"></line>
      <line x1="118" y1="72" x2="122" y2="72"></line>
      <line x1="118" y1="76" x2="122" y2="76"></line>
      <line x1="118" y1="80" x2="122" y2="80"></line>
      <line x1="118" y1="84" x2="122" y2="84"></line>
      <line x1="118" y1="88" x2="122" y2="88"></line>
      <line x1="118" y1="92" x2="122" y2="92"></line>
      <line x1="118" y1="96" x2="122" y2="96"></line>
      <line x1="118" y1="100" x2="122" y2="100"></line>
      <line x1="118" y1="104" x2="122" y2="104"></line>
      <line x1="118" y1="108" x2="122" y2="108"></line>
      <line x1="118" y1="112" x2="122" y2="112"></line>
      <line x1="118" y1="116" x2="122" y2="116"></line>
      <line x1="118" y1="120" x2="122" y2="120"></line>
      <line x1="118" y1="124" x2="122" y2="124"></line>
      <line x1="118" y1="128" x2="122" y2="128"></line>
      <line x1="118" y1="132" x2="122" y2="132"></line>
      <line x1="118" y1="136" x2="122" y2="136"></line>
      <line x1="118" y1="140" x2="122" y2="140"></line>
      <line x1="118" y1="144" x2="122" y2="144"></line>
      <line x1="118" y1="148" x2="122" y2="148"></line>
      <line x1="118" y1="152" x2="122" y2="152"></line>
      <line x1="118" y1="156" x2="122" y2="156"></line>
      <line x1="118" y1="160" x2="122" y2="160"></line>
      <line x1="118" y1="164" x2="122" y2="164"></line>
      <line x1="118" y1="168" x2="122" y2="168"></line>
      <line x1="118" y1="172" x2="122" y2="172"></line>
      <line x1="118" y1="176" x2="122" y2="176"></line>
      <line x1="118" y1="180" x2="122" y2="180"></line>
      <line x1="118" y1="184" x2="122" y2="184"></line>
      <line x1="118" y1="188" x2="122" y2="188"></line>
      <line x1="118" y1="192" x2="122" y2="192"></line>
      <line x1="118" y1="196" x2="122" y2="196"></line>
      <line x1="118" y1="200" x2="122" y2="200"></line>
      <line x1="118" y1="204" x2="122" y2="204"></line>
      <line x1="118" y1="208" x2="122" y2="208"></line>
      <line x1="118" y1="212" x2="122" y2="212"></line>
      <line x1="118" y1="216" x2="122" y2="216"></line>
    </g>
    
    <path d="M116 60 L120 50 L124 60 Z" fill="#FFFEF8"></path>
    <circle cx="120" cy="56" r="1.6" fill="#2A2A2A" stroke="none"></circle>
    
    <path d="M68 156 L106 168" stroke-width="1.1"></path>
    <path d="M134 168 L172 156" stroke-width="1.1"></path>
    
    <g stroke="#2A2A2A" stroke-width="0.4" opacity="0.6">
      <line x1="68.0" y1="154.5" x2="68.4" y2="157.5"></line>
      <line x1="70.7" y1="155.4" x2="71.1" y2="158.4"></line>
      <line x1="73.4" y1="156.2" x2="73.8" y2="159.2"></line>
      <line x1="76.1" y1="157.1" x2="76.5" y2="160.1"></line>
      <line x1="78.9" y1="157.9" x2="79.3" y2="160.9"></line>
      <line x1="81.6" y1="158.8" x2="82.0" y2="161.8"></line>
      <line x1="84.3" y1="159.6" x2="84.7" y2="162.6"></line>
      <line x1="87.0" y1="160.5" x2="87.4" y2="163.5"></line>
      <line x1="89.7" y1="161.4" x2="90.1" y2="164.4"></line>
      <line x1="92.4" y1="162.2" x2="92.8" y2="165.2"></line>
      <line x1="95.1" y1="163.1" x2="95.5" y2="166.1"></line>
      <line x1="97.9" y1="163.9" x2="98.3" y2="166.9"></line>
      <line x1="100.6" y1="164.8" x2="101.0" y2="167.8"></line>
      <line x1="103.3" y1="165.6" x2="103.7" y2="168.6"></line>
      <line x1="134.0" y1="166.5" x2="134.4" y2="169.5"></line>
      <line x1="136.7" y1="165.6" x2="137.1" y2="168.6"></line>
      <line x1="139.4" y1="164.8" x2="139.8" y2="167.8"></line>
      <line x1="142.1" y1="163.9" x2="142.5" y2="166.9"></line>
      <line x1="144.9" y1="163.1" x2="145.3" y2="166.1"></line>
      <line x1="147.6" y1="162.2" x2="148.0" y2="165.2"></line>
      <line x1="150.3" y1="161.4" x2="150.7" y2="164.4"></line>
      <line x1="153.0" y1="160.5" x2="153.4" y2="163.5"></line>
      <line x1="155.7" y1="159.6" x2="156.1" y2="162.6"></line>
      <line x1="158.4" y1="158.8" x2="158.8" y2="161.8"></line>
      <line x1="161.1" y1="157.9" x2="161.5" y2="160.9"></line>
      <line x1="163.9" y1="157.1" x2="164.3" y2="160.1"></line>
      <line x1="166.6" y1="156.2" x2="167.0" y2="159.2"></line>
      <line x1="169.3" y1="155.4" x2="169.7" y2="158.4"></line>
    </g>
    
    <path d="M68 218 Q120 224 172 218" stroke-width="0.9" opacity="0.6"></path>
    
    <line x1="32" y1="206" x2="62" y2="214" stroke-width="0.9" opacity="0.7"></line>
    <line x1="208" y1="206" x2="178" y2="214" stroke-width="0.9" opacity="0.7"></line>
    
    <path d="M88 100 L102 100 L102 110 L88 110 Z" stroke-width="0.8" opacity="0.5"></path>
  </g>
</svg>