<svg xmlns="http://www.w3.org/2000/svg" viewBox="0 0 240 240" width="240" height="240">
  <g fill="none" stroke="#2A2A2A" stroke-width="1.4" stroke-linecap="round" stroke-linejoin="round">
    
    <path d="M58 70 L58 178 Q58 184 64 184 L210 184 Q228 184 228 168 Q228 152 218 146 L164 138 Q150 132 144 120 L144 70 Z" fill="#1A1A1A"></path>
    
    <path d="M58 138 L144 138" stroke-width="0.9" opacity="0.55"></path>
    
    <path d="M82 86 L82 134 L138 134 L138 86 Z" stroke-width="0.9" opacity="0.5"></path>
    <line x1="88" y1="92" x2="88" y2="128" stroke-width="0.6" opacity="0.45"></line>
    <line x1="96" y1="92" x2="96" y2="128" stroke-width="0.6" opacity="0.45"></line>
    <line x1="104" y1="92" x2="104" y2="128" stroke-width="0.6" opacity="0.45"></line>
    <line x1="112" y1="92" x2="112" y2="128" stroke-width="0.6" opacity="0.45"></line>
    <line x1="120" y1="92" x2="120" y2="128" stroke-width="0.6" opacity="0.45"></line>
    <line x1="128" y1="92" x2="128" y2="128" stroke-width="0.6" opacity="0.45"></line>
    
    <path d="M58 70 L48 60 L62 60 L62 78"></path>
    
    <path d="M170 144 Q200 150 218 162" stroke-width="0.9" opacity="0.7"></path>
    
    <path d="M58 184 L228 184 L226 192 L60 192 Z" fill="#FFFEF8"></path>
    <line x1="60" y1="188" x2="226" y2="188" stroke-width="0.7" opacity="0.6"></line>
    
    <path d="M58 192 L82 192 L80 210 L60 210 Z"></path>
    
  </g>
</svg>