<svg xmlns="http://www.w3.org/2000/svg" viewBox="0 0 240 240" width="240" height="240">
  <g fill="none" stroke="#2A2A2A" stroke-width="1.4" stroke-linecap="round" stroke-linejoin="round">
    
    <path d="M68 60 L172 60 L176 78 L182 184 L138 188 L130 132 L120 132 L110 132 L102 188 L58 184 L64 78 Z" fill="#1A1A1A"></path>
    
    <line x1="68" y1="76" x2="172" y2="76" stroke-width="1.2"></line>
    
    <path d="M75 60 L75 76 L81 76 L81 60" stroke-width="1"></path>
    <path d="M97 60 L97 76 L103 76 L103 60" stroke-width="1"></path>
    <path d="M117 60 L117 76 L123 76 L123 60" stroke-width="1"></path>
    <path d="M137 60 L137 76 L143 76 L143 60" stroke-width="1"></path>
    <path d="M159 60 L159 76 L165 76 L165 60" stroke-width="1"></path>
    
    <circle cx="120" cy="68" r="1.4" fill="#2A2A2A" stroke="none"></circle>
    <line x1="120" y1="76" x2="120" y2="106" stroke-width="0.7" opacity="0.55"></line>
    
    <path d="M76 80 Q72 96 86 104" stroke-width="1"></path>
    <path d="M164 80 Q168 96 154 104" stroke-width="1"></path>
    
    
    <rect x="62" y="118" width="36" height="44" stroke-width="1"></rect>
    
    <path d="M62 118 L62 130 L98 130 L98 118" stroke-width="1"></path>
    
    <circle cx="80" cy="124" r="1.2" fill="#2A2A2A" stroke="none"></circle>
    
    <rect x="142" y="118" width="36" height="44" stroke-width="1"></rect>
    <path d="M142 118 L142 130 L178 130 L178 118" stroke-width="1"></path>
    <circle cx="160" cy="124" r="1.2" fill="#2A2A2A" stroke="none"></circle>
    
    <line x1="66" y1="130" x2="66" y2="162" stroke-width="0.7" opacity="0.5"></line>
    <line x1="94" y1="130" x2="94" y2="162" stroke-width="0.7" opacity="0.5"></line>
    <line x1="146" y1="130" x2="146" y2="162" stroke-width="0.7" opacity="0.5"></line>
    <line x1="174" y1="130" x2="174" y2="162" stroke-width="0.7" opacity="0.5"></line>
    
    <line x1="98" y1="162" x2="100" y2="186" stroke-width="0.7" opacity="0.45"></line>
    <line x1="142" y1="162" x2="140" y2="186" stroke-width="0.7" opacity="0.45"></line>
  </g>
  <g fill="none" stroke="#8B6F47" stroke-width="0.9" stroke-linecap="round" stroke-dasharray="2.4 2.4" opacity="0.55">
    <line x1="68" y1="78" x2="172" y2="78"></line>
    <path d="M60 186 L102 188"></path>
    <path d="M138 188 L180 186"></path>
    
    <rect x="64" y="120" width="32" height="40" fill="none"></rect>
    <rect x="144" y="120" width="32" height="40" fill="none"></rect>
  </g>
</svg>