<svg xmlns="http://www.w3.org/2000/svg" viewBox="0 0 240 240" width="240" height="240">
  <g fill="none" stroke="#2A2A2A" stroke-width="1.4" stroke-linecap="round" stroke-linejoin="round">
    
    <path d="M24 158 L26 138 Q30 124 52 116 L92 108 Q108 92 132 92 Q160 92 182 106 Q206 116 220 128 Q228 138 226 158 Z" fill="#1A1A1A"></path>
    <path d="M86 110 Q100 80 130 92"></path>
    <path d="M130 92 Q140 102 156 112"></path>
    
    <path d="M104 122 L120 108 M112 130 L128 116 M120 138 L136 124" stroke-width="0.9"></path>
    
    <path d="M84 120 L78 156" stroke-width="1"></path>
    <path d="M126 96 L122 156" stroke-width="1"></path>
    <path d="M170 102 L172 156" stroke-width="1"></path>
    
    <path d="M22 158 L226 158 L224 178 L24 178 Z" fill="#FFFEF8"></path>
    <path d="M22 178 L224 178 L218 200 L28 200 Z" fill="#FFFEF8"></path>
    <line x1="24" y1="178" x2="224" y2="178" stroke-width="1"></line>
    <line x1="28" y1="190" x2="220" y2="190" stroke-width="0.7" opacity="0.55"></line>
  </g>
</svg>