<svg xmlns="http://www.w3.org/2000/svg" viewBox="0 0 240 240" width="240" height="240">
  <g fill="none" stroke="#2A2A2A" stroke-width="1.4" stroke-linecap="round" stroke-linejoin="round">
    
    <path d="M52 108 L196 108 L216 120 L196 132 L52 132 Z" fill="#1A1A1A"></path>
    
    <path d="M52 108 L42 108 L42 132 L52 132" fill="#1A1A1A"></path>
    
    <rect x="14" y="100" width="34" height="40" rx="3" fill="#FFFEF8"></rect>
    <rect x="20" y="106" width="22" height="28" rx="2" fill="#1A1A1A"></rect>
    
    <line x1="48" y1="120" x2="62" y2="120" stroke-width="1.6"></line>
    <circle cx="48" cy="120" r="1.4" fill="#FFFEF8"></circle>
    
    <path d="M68 106 L74 106 L74 134 L68 134 Z" stroke-width="1"></path>
    
    <circle cx="120" cy="120" r="1.6" fill="#FFFEF8"></circle>
    <circle cx="138" cy="120" r="1.6" fill="#FFFEF8"></circle>
    <circle cx="156" cy="120" r="1.6" fill="#FFFEF8"></circle>
    <circle cx="174" cy="120" r="1.6" fill="#FFFEF8"></circle>
    <circle cx="192" cy="120" r="1.6" fill="#FFFEF8"></circle>
    <circle cx="120" cy="120" r="1.6" stroke="#2A2A2A" stroke-width="0.8"></circle>
    <circle cx="138" cy="120" r="1.6" stroke="#2A2A2A" stroke-width="0.8"></circle>
    <circle cx="156" cy="120" r="1.6" stroke="#2A2A2A" stroke-width="0.8"></circle>
    <circle cx="174" cy="120" r="1.6" stroke="#2A2A2A" stroke-width="0.8"></circle>
    <circle cx="192" cy="120" r="1.6" stroke="#2A2A2A" stroke-width="0.8"></circle>
  </g>
  
  <g fill="none" stroke="#8B6F47" stroke-width="0.9" stroke-linecap="round" stroke-dasharray="2.4 2.4" opacity="0.55">
    <line x1="56" y1="113" x2="194" y2="113"></line>
    <line x1="56" y1="127" x2="194" y2="127"></line>
    <path d="M194 113 L210 120 L194 127"></path>
  </g>
</svg>