<svg xmlns="http://www.w3.org/2000/svg" viewBox="0 0 240 240" width="240" height="240">
  <g fill="none" stroke="#2A2A2A" stroke-width="1.4" stroke-linecap="round" stroke-linejoin="round">
    
    <path d="M58 76 L88 50 L102 60 L120 70 L138 60 L152 50 L182 76 L196 196 L172 204 L172 210 L68 210 L68 204 L44 196 Z" fill="#1A1A1A"></path>
    
    
    <path d="M88 50 L98 60 L86 130 L120 86 L102 60 Z" fill="#1A1A1A"></path>
    
    <path d="M152 50 L142 60 L154 116 L120 86 L138 60 Z" fill="#1A1A1A"></path>
    
    <path d="M86 130 L156 200" stroke-width="1.3"></path>
    
    <g stroke="#2A2A2A" stroke-width="0.5" opacity="0.7">
      <line x1="87.8" y1="128.3" x2="84.3" y2="131.8"></line>
      <line x1="90.3" y1="130.8" x2="86.8" y2="134.3"></line>
      <line x1="92.8" y1="133.3" x2="89.3" y2="136.8"></line>
      <line x1="95.3" y1="135.8" x2="91.8" y2="139.3"></line>
      <line x1="97.8" y1="138.3" x2="94.3" y2="141.8"></line>
      <line x1="100.3" y1="140.8" x2="96.8" y2="144.3"></line>
      <line x1="102.8" y1="143.3" x2="99.3" y2="146.8"></line>
      <line x1="105.3" y1="145.8" x2="101.8" y2="149.3"></line>
      <line x1="107.8" y1="148.3" x2="104.3" y2="151.8"></line>
      <line x1="110.3" y1="150.8" x2="106.8" y2="154.3"></line>
      <line x1="112.8" y1="153.3" x2="109.3" y2="156.8"></line>
      <line x1="115.3" y1="155.8" x2="111.8" y2="159.3"></line>
      <line x1="117.8" y1="158.3" x2="114.3" y2="161.8"></line>
      <line x1="120.3" y1="160.8" x2="116.8" y2="164.3"></line>
      <line x1="122.8" y1="163.3" x2="119.3" y2="166.8"></line>
      <line x1="125.3" y1="165.8" x2="121.8" y2="169.3"></line>
      <line x1="127.8" y1="168.3" x2="124.3" y2="171.8"></line>
      <line x1="130.3" y1="170.8" x2="126.8" y2="174.3"></line>
      <line x1="132.8" y1="173.3" x2="129.3" y2="176.8"></line>
      <line x1="135.3" y1="175.8" x2="131.8" y2="179.3"></line>
      <line x1="137.8" y1="178.3" x2="134.3" y2="181.8"></line>
      <line x1="140.3" y1="180.8" x2="136.8" y2="184.3"></line>
      <line x1="142.8" y1="183.3" x2="139.3" y2="186.8"></line>
      <line x1="145.3" y1="185.8" x2="141.8" y2="189.3"></line>
      <line x1="147.8" y1="188.3" x2="144.3" y2="191.8"></line>
      <line x1="150.3" y1="190.8" x2="146.8" y2="194.3"></line>
      <line x1="152.8" y1="193.3" x2="149.3" y2="196.8"></line>
      <line x1="155.3" y1="195.8" x2="151.8" y2="199.3"></line>
    </g>
    
    <path d="M84 130 L80 142 L86 142 L88 132 Z" fill="#1A1A1A"></path>
    
    <circle cx="100" cy="64" r="2.2" fill="#FFFEF8"></circle>
    <circle cx="100" cy="64" r="0.9" fill="#2A2A2A" stroke="none"></circle>
    <circle cx="140" cy="64" r="2.2" fill="#FFFEF8"></circle>
    <circle cx="140" cy="64" r="0.9" fill="#2A2A2A" stroke="none"></circle>
    
    <line x1="68" y1="186" x2="172" y2="186" stroke-width="1.4"></line>
    <line x1="68" y1="194" x2="172" y2="194" stroke-width="1.4"></line>
    <path d="M112 184 L130 184 L130 196 L112 196 Z" fill="#FFFEF8"></path>
    <line x1="118" y1="184" x2="118" y2="196" stroke-width="0.8"></line>
    <line x1="124" y1="184" x2="124" y2="196" stroke-width="0.8"></line>
    
    <path d="M64 188 L60 188 L60 192 L64 192"></path>
    <path d="M176 188 L180 188 L180 192 L176 192"></path>
    
    <path d="M76 116 L102 124" stroke-width="1"></path>
    <g stroke="#2A2A2A" stroke-width="0.4" opacity="0.6">
      <line x1="76" y1="114.5" x2="76.6" y2="117.5"></line>
      <line x1="78" y1="115.1" x2="78.6" y2="118.1"></line>
      <line x1="80" y1="115.7" x2="80.6" y2="118.7"></line>
      <line x1="82" y1="116.3" x2="82.6" y2="119.3"></line>
      <line x1="84" y1="116.9" x2="84.6" y2="119.9"></line>
      <line x1="86" y1="117.5" x2="86.6" y2="120.5"></line>
      <line x1="88" y1="118.1" x2="88.6" y2="121.1"></line>
      <line x1="90" y1="118.7" x2="90.6" y2="121.7"></line>
      <line x1="92" y1="119.3" x2="92.6" y2="122.3"></line>
      <line x1="94" y1="119.9" x2="94.6" y2="122.9"></line>
      <line x1="96" y1="120.5" x2="96.6" y2="123.5"></line>
      <line x1="98" y1="121.1" x2="98.6" y2="124.1"></line>
      <line x1="100" y1="121.7" x2="100.6" y2="124.7"></line>
      <line x1="102" y1="122.3" x2="102.6" y2="125.3"></line>
    </g>
    
    <path d="M70 162 L100 174" stroke-width="1"></path>
    <path d="M140 174 L170 162" stroke-width="1"></path>
    
    <path d="M84 56 L92 50 L100 56 L98 68 L86 68 Z" stroke-width="1"></path>
    <path d="M156 56 L148 50 L140 56 L142 68 L154 68 Z" stroke-width="1"></path>
    
    <line x1="50" y1="194" x2="62" y2="200" stroke-width="0.8"></line>
    <line x1="190" y1="194" x2="178" y2="200" stroke-width="0.8"></line>
  </g>
  <g fill="none" stroke="#8B6F47" stroke-width="0.9" stroke-linecap="round" stroke-dasharray="2.4 2.4" opacity="0.5">
    <path d="M44 198 L68 206"></path>
    <path d="M196 198 L172 206"></path>
    <path d="M68 210 L172 210"></path>
  </g>
</svg>