<svg xmlns="http://www.w3.org/2000/svg" viewBox="0 0 240 240" width="240" height="240">
  <g fill="none" stroke="#2A2A2A" stroke-width="1.4" stroke-linecap="round" stroke-linejoin="round">
    <path d="M62 76 L62 178 Q62 184 68 184 L210 184 Q228 184 228 168 Q228 154 218 148 L164 140 Q150 134 144 122 L144 76 Z" fill="#1A1A1A"></path>
    <path d="M62 140 L144 140" stroke-width="0.9" opacity="0.55"></path>
    
    <line x1="120" y1="86" x2="120" y2="134" stroke-width="0.8" opacity="0.6"></line>
    <circle cx="120" cy="86" r="1.4" fill="#2A2A2A" stroke="none"></circle>
    
    <path d="M62 86 Q104 80 144 86" stroke-width="0.9" opacity="0.6"></path>
    
    <path d="M170 146 Q200 152 218 162" stroke-width="0.9" opacity="0.7"></path>
    
    <path d="M62 184 L228 184 L226 192 L64 192 Z" fill="#FFFEF8"></path>
    <path d="M62 192 L86 192 L84 212 L64 212 Z"></path>
    <line x1="64" y1="188" x2="226" y2="188" stroke-width="0.7" opacity="0.6"></line>
  </g>
</svg>