<svg xmlns="http://www.w3.org/2000/svg" viewBox="0 0 240 240" width="240" height="240">
  <g fill="none" stroke="#2A2A2A" stroke-width="1.4" stroke-linecap="round" stroke-linejoin="round">
    
    <path d="M84 56 Q120 28 156 56 L150 76 Q120 70 90 76 Z" fill="#1A1A1A"></path>
    
    <path d="M94 60 Q120 50 146 60 L144 72 Q120 68 96 72 Z" fill="#0A0A0A" stroke-width="0.9"></path>
    
    <path d="M58 78 L86 64 L98 80 L120 88 L142 80 L154 64 L182 78 L208 218 L172 222 L168 226 L72 226 L68 222 L32 218 Z" fill="#1A1A1A"></path>
    
    <path d="M108 76 L110 110" stroke-width="1.1"></path>
    <path d="M132 76 L130 110" stroke-width="1.1"></path>
    <circle cx="110" cy="110" r="1.6" fill="#2A2A2A" stroke="none"></circle>
    <circle cx="130" cy="110" r="1.6" fill="#2A2A2A" stroke="none"></circle>
    
    <path d="M82 142 L158 142 L154 184 L86 184 Z" stroke-width="1.1"></path>
    
    <path d="M82 142 L72 156" stroke-width="0.9" opacity="0.6"></path>
    <path d="M158 142 L168 156" stroke-width="0.9" opacity="0.6"></path>
    
    <line x1="46" y1="210" x2="72" y2="218" stroke-width="0.9" opacity="0.6"></line>
    <line x1="48" y1="210" x2="52" y2="218" stroke-width="0.6" opacity="0.5"></line>
    <line x1="52" y1="210" x2="56" y2="218" stroke-width="0.6" opacity="0.5"></line>
    <line x1="56" y1="210" x2="60" y2="218" stroke-width="0.6" opacity="0.5"></line>
    <line x1="60" y1="210" x2="64" y2="218" stroke-width="0.6" opacity="0.5"></line>
    <line x1="64" y1="210" x2="68" y2="218" stroke-width="0.6" opacity="0.5"></line>
    <line x1="68" y1="210" x2="72" y2="218" stroke-width="0.6" opacity="0.5"></line>
    <line x1="194" y1="210" x2="168" y2="218" stroke-width="0.9" opacity="0.6"></line>
    <line x1="188" y1="210" x2="184" y2="218" stroke-width="0.6" opacity="0.5"></line>
    <line x1="184" y1="210" x2="180" y2="218" stroke-width="0.6" opacity="0.5"></line>
    <line x1="180" y1="210" x2="176" y2="218" stroke-width="0.6" opacity="0.5"></line>
    <line x1="176" y1="210" x2="172" y2="218" stroke-width="0.6" opacity="0.5"></line>
    <line x1="172" y1="210" x2="168" y2="218" stroke-width="0.6" opacity="0.5"></line>
    <line x1="168" y1="210" x2="164" y2="218" stroke-width="0.6" opacity="0.5"></line>
    
    <line x1="32" y1="218" x2="208" y2="218" stroke-width="0.9" opacity="0.6"></line>
    <line x1="40" y1="218" x2="40" y2="226" stroke-width="0.6" opacity="0.5"></line>
    <line x1="46" y1="218" x2="46" y2="226" stroke-width="0.6" opacity="0.5"></line>
    <line x1="52" y1="218" x2="52" y2="226" stroke-width="0.6" opacity="0.5"></line>
    <line x1="58" y1="218" x2="58" y2="226" stroke-width="0.6" opacity="0.5"></line>
    <line x1="64" y1="218" x2="64" y2="226" stroke-width="0.6" opacity="0.5"></line>
    <line x1="70" y1="218" x2="70" y2="226" stroke-width="0.6" opacity="0.5"></line>
    <line x1="76" y1="218" x2="76" y2="226" stroke-width="0.6" opacity="0.5"></line>
    <line x1="82" y1="218" x2="82" y2="226" stroke-width="0.6" opacity="0.5"></line>
    <line x1="88" y1="218" x2="88" y2="226" stroke-width="0.6" opacity="0.5"></line>
    <line x1="94" y1="218" x2="94" y2="226" stroke-width="0.6" opacity="0.5"></line>
    <line x1="100" y1="218" x2="100" y2="226" stroke-width="0.6" opacity="0.5"></line>
    <line x1="106" y1="218" x2="106" y2="226" stroke-width="0.6" opacity="0.5"></line>
    <line x1="112" y1="218" x2="112" y2="226" stroke-width="0.6" opacity="0.5"></line>
    <line x1="118" y1="218" x2="118" y2="226" stroke-width="0.6" opacity="0.5"></line>
    <line x1="124" y1="218" x2="124" y2="226" stroke-width="0.6" opacity="0.5"></line>
    <line x1="130" y1="218" x2="130" y2="226" stroke-width="0.6" opacity="0.5"></line>
    <line x1="136" y1="218" x2="136" y2="226" stroke-width="0.6" opacity="0.5"></line>
    <line x1="142" y1="218" x2="142" y2="226" stroke-width="0.6" opacity="0.5"></line>
    <line x1="148" y1="218" x2="148" y2="226" stroke-width="0.6" opacity="0.5"></line>
    <line x1="154" y1="218" x2="154" y2="226" stroke-width="0.6" opacity="0.5"></line>
    <line x1="160" y1="218" x2="160" y2="226" stroke-width="0.6" opacity="0.5"></line>
    <line x1="166" y1="218" x2="166" y2="226" stroke-width="0.6" opacity="0.5"></line>
    <line x1="172" y1="218" x2="172" y2="226" stroke-width="0.6" opacity="0.5"></line>
    <line x1="178" y1="218" x2="178" y2="226" stroke-width="0.6" opacity="0.5"></line>
    <line x1="184" y1="218" x2="184" y2="226" stroke-width="0.6" opacity="0.5"></line>
    <line x1="190" y1="218" x2="190" y2="226" stroke-width="0.6" opacity="0.5"></line>
    <line x1="196" y1="218" x2="196" y2="226" stroke-width="0.6" opacity="0.5"></line>
    <line x1="202" y1="218" x2="202" y2="226" stroke-width="0.6" opacity="0.5"></line>
  </g>
  <g fill="none" stroke="#8B6F47" stroke-width="0.9" stroke-linecap="round" stroke-dasharray="2.4 2.4" opacity="0.5">
    <path d="M82 144 L158 144"></path>
    <path d="M86 184 L154 184"></path>
  </g>
</svg>