<svg xmlns="http://www.w3.org/2000/svg" viewBox="0 0 240 240" width="240" height="240">
  <g fill="none" stroke="#2A2A2A" stroke-width="1.4" stroke-linecap="round" stroke-linejoin="round">
    
    <path d="M68 64 L172 64 L176 80 L180 152 L138 156 L130 116 L120 116 L110 116 L102 156 L60 152 L64 80 Z" fill="#1A1A1A"></path>
    
    <line x1="68" y1="64" x2="172" y2="64" stroke-width="1.2"></line>
    <line x1="68" y1="74" x2="172" y2="74" stroke-width="1" opacity="0.7"></line>
    
    <g stroke-width="0.7" opacity="0.55">
      <line x1="72" y1="64" x2="72" y2="74"></line>
      <line x1="77.5" y1="64" x2="77.5" y2="74"></line>
      <line x1="83" y1="64" x2="83" y2="74"></line>
      <line x1="88.5" y1="64" x2="88.5" y2="74"></line>
      <line x1="94" y1="64" x2="94" y2="74"></line>
      <line x1="99.5" y1="64" x2="99.5" y2="74"></line>
      <line x1="105" y1="64" x2="105" y2="74"></line>
      <line x1="110.5" y1="64" x2="110.5" y2="74"></line>
      <line x1="116" y1="64" x2="116" y2="74"></line>
      <line x1="121.5" y1="64" x2="121.5" y2="74"></line>
      <line x1="127" y1="64" x2="127" y2="74"></line>
      <line x1="132.5" y1="64" x2="132.5" y2="74"></line>
      <line x1="138" y1="64" x2="138" y2="74"></line>
      <line x1="143.5" y1="64" x2="143.5" y2="74"></line>
      <line x1="149" y1="64" x2="149" y2="74"></line>
      <line x1="154.5" y1="64" x2="154.5" y2="74"></line>
      <line x1="160" y1="64" x2="160" y2="74"></line>
      <line x1="165.5" y1="64" x2="165.5" y2="74"></line>
    </g>
    
    <circle cx="120" cy="69" r="1.2" fill="none" stroke-width="0.9"></circle>
    
    <path d="M119 70 Q108 78 102 90 Q98 100 104 108" stroke-width="1.1"></path>
    
    <path d="M121 70 Q132 80 136 92 Q138 102 132 110" stroke-width="1.1"></path>
    
    <circle cx="104" cy="108" r="1.6" fill="#2A2A2A" stroke="none"></circle>
    <circle cx="132" cy="110" r="1.6" fill="#2A2A2A" stroke="none"></circle>
    
    <path d="M62 148 L62 156" stroke-width="1"></path>
    <path d="M178 148 L178 156" stroke-width="1"></path>
    
    <line x1="120" y1="76" x2="120" y2="116" stroke-width="0.7" opacity="0.4"></line>
  </g>
  <g fill="none" stroke="#8B6F47" stroke-width="0.9" stroke-linecap="round" stroke-dasharray="2.4 2.4" opacity="0.55">
    <path d="M62 154 L102 156"></path>
    <path d="M138 156 L178 154"></path>
  </g>
</svg>