<svg xmlns="http://www.w3.org/2000/svg" viewBox="0 0 240 240" width="240" height="240">
  <g fill="none" stroke="#2A2A2A" stroke-width="1.4" stroke-linecap="round" stroke-linejoin="round">
    <path d="M70 30 L170 30 L174 50 L182 222 L138 224 L130 122 L120 122 L110 122 L102 224 L58 222 L66 50 Z" fill="#6B4A2B"></path>
    <line x1="70" y1="46" x2="170" y2="46" stroke-width="1.2"></line>
    <path d="M75 30 L75 46 L81 46 L81 30" stroke-width="1"></path>
    <path d="M97 30 L97 46 L103 46 L103 30" stroke-width="1"></path>
    <path d="M117 30 L117 46 L123 46 L123 30" stroke-width="1"></path>
    <path d="M137 30 L137 46 L143 46 L143 30" stroke-width="1"></path>
    <path d="M159 30 L159 46 L165 46 L165 30" stroke-width="1"></path>
    <circle cx="120" cy="38" r="1.4" fill="#2A2A2A" stroke="none"></circle>
    <line x1="120" y1="46" x2="120" y2="120" stroke-width="0.7" opacity="0.55"></line>
    <path d="M76 50 Q72 68 86 78" stroke-width="1"></path>
    <path d="M164 50 Q168 68 154 78" stroke-width="1"></path>
    
    <line x1="98" y1="130" x2="92" y2="220" stroke-width="0.7" opacity="0.5"></line>
    <line x1="142" y1="130" x2="148" y2="220" stroke-width="0.7" opacity="0.5"></line>
  </g>
  <g fill="none" stroke="#8B6F47" stroke-width="0.9" stroke-linecap="round" stroke-dasharray="2.4 2.4" opacity="0.55">
    <line x1="70" y1="48" x2="170" y2="48"></line>
    <path d="M60 222 L102 224"></path>
    <path d="M138 224 L180 222"></path>
  </g>
</svg>