<svg xmlns="http://www.w3.org/2000/svg" viewBox="0 0 240 240" width="240" height="240">
  <g fill="none" stroke="#2A2A2A" stroke-width="1.4" stroke-linecap="round" stroke-linejoin="round">
    <path d="M68 70 L96 50 L108 58 Q120 70 132 58 L144 50 L172 70 L194 200 L168 206 L168 210 L72 210 L72 206 L46 200 Z" fill="#3D3D40"></path>
    <path d="M96 50 L102 78 L120 70 L138 78 L144 50" fill="#3D3D40" stroke-width="1.4"></path>
    <path d="M100 60 Q120 64 140 60" stroke-width="0.8" opacity="0.6"></path>
    <line x1="120" y1="70" x2="120" y2="120" stroke-width="0.9" opacity="0.7"></line>
    <line x1="115" y1="74" x2="115" y2="120" stroke-width="0.7" opacity="0.5"></line>
    <line x1="125" y1="74" x2="125" y2="120" stroke-width="0.7" opacity="0.5"></line>
    <circle cx="120" cy="84" r="1.6" fill="#2A2A2A" stroke="none"></circle>
    <circle cx="120" cy="100" r="1.6" fill="#2A2A2A" stroke="none"></circle>
    <circle cx="120" cy="116" r="1.6" fill="#2A2A2A" stroke="none"></circle>
    <line x1="62" y1="194" x2="80" y2="200" stroke-width="0.9" opacity="0.7"></line>
    <line x1="178" y1="194" x2="160" y2="200" stroke-width="0.9" opacity="0.7"></line>
  </g>
  <g fill="none" stroke="#8B6F47" stroke-width="0.9" stroke-linecap="round" stroke-dasharray="2.4 2.4" opacity="0.5">
    <path d="M46 202 L72 208"></path>
    <path d="M194 202 L168 208"></path>
    <path d="M72 208 L168 208"></path>
    <line x1="113" y1="76" x2="113" y2="120"></line>
    <line x1="127" y1="76" x2="127" y2="120"></line>
  </g>
</svg>