<svg xmlns="http://www.w3.org/2000/svg" viewBox="0 0 240 240" width="240" height="240">
  <g fill="none" stroke="#2A2A2A" stroke-width="1.4" stroke-linecap="round" stroke-linejoin="round">
    <path d="M56 70 L86 46 L102 56 L120 64 L138 56 L154 46 L184 70 L198 200 L172 208 L172 222 L68 222 L68 208 L42 200 Z" fill="#EDE0C2"></path>
    <path d="M138 56 L132 64 L114 110 L102 124 L100 144 L120 132 L120 222 L138 220 L154 46 Z" fill="#EDE0C2"></path>
    <path d="M102 56 L108 64 L120 132 L120 144 L100 124 L86 46 Z" fill="#EDE0C2"></path>

    <path d="M102 56 L108 80 L120 132" stroke-width="0.8" opacity="0.55"></path>
    <path d="M138 56 L132 80 L120 132" stroke-width="0.8" opacity="0.55"></path>

    <path d="M102 56 L114 64 L108 80"></path>
    <path d="M138 56 L126 64 L132 80"></path>

    <circle cx="134" cy="120" r="2.4" fill="#C8A658"></circle>
    <circle cx="134" cy="120" r="2.4" stroke="#2A2A2A" stroke-width="0.9"></circle>
    <circle cx="106" cy="120" r="2.4" fill="#C8A658"></circle>
    <circle cx="106" cy="120" r="2.4" stroke="#2A2A2A" stroke-width="0.9"></circle>
    <circle cx="134" cy="148" r="2.4" fill="#C8A658"></circle>
    <circle cx="134" cy="148" r="2.4" stroke="#2A2A2A" stroke-width="0.9"></circle>
    <circle cx="106" cy="148" r="2.4" fill="#C8A658"></circle>
    <circle cx="106" cy="148" r="2.4" stroke="#2A2A2A" stroke-width="0.9"></circle>
    <circle cx="134" cy="176" r="2.4" fill="#C8A658"></circle>
    <circle cx="134" cy="176" r="2.4" stroke="#2A2A2A" stroke-width="0.9"></circle>
    <circle cx="106" cy="176" r="2.4" fill="#C8A658"></circle>
    <circle cx="106" cy="176" r="2.4" stroke="#2A2A2A" stroke-width="0.9"></circle>

    <circle cx="134" cy="120" r="0.6" fill="#2A2A2A" stroke="none"></circle>
    <circle cx="106" cy="120" r="0.6" fill="#2A2A2A" stroke="none"></circle>
    <circle cx="134" cy="148" r="0.6" fill="#2A2A2A" stroke="none"></circle>
    <circle cx="106" cy="148" r="0.6" fill="#2A2A2A" stroke="none"></circle>
    <circle cx="134" cy="176" r="0.6" fill="#2A2A2A" stroke="none"></circle>
    <circle cx="106" cy="176" r="0.6" fill="#2A2A2A" stroke="none"></circle>

    <line x1="84" y1="112" x2="106" y2="112" stroke-width="1.2"></line>

    <path d="M88 110 L92 106 L96 110" stroke-width="0.8" opacity="0.7"></path>

    <path d="M68 184 L102 184 L102 196 L68 196 Z" stroke-width="1"></path>
    <path d="M138 184 L172 184 L172 196 L138 196 Z" stroke-width="1"></path>

    <path d="M86 46 L102 68" stroke-width="0.8" opacity="0.5"></path>
    <path d="M154 46 L138 68" stroke-width="0.8" opacity="0.5"></path>
  </g>
  <g fill="none" stroke="#8B6F47" stroke-width="0.9" stroke-linecap="round" stroke-dasharray="2.4 2.4" opacity="0.5">
    <path d="M104 60 L110 80 L122 130"></path>
    <path d="M136 60 L130 80 L138 222"></path>
    <path d="M42 202 L68 210"></path>
    <path d="M198 202 L172 210"></path>
    <path d="M68 222 L172 222"></path>
    <path d="M68 196 L102 196"></path>
    <path d="M138 196 L172 196"></path>
  </g>
</svg>