<svg xmlns="http://www.w3.org/2000/svg" viewBox="0 0 240 240" width="240" height="240">
  <g fill="none" stroke="#2A2A2A" stroke-width="1.4" stroke-linecap="round" stroke-linejoin="round">
    
    <path d="M68 70 L96 50 L116 80 L120 84 L124 80 L144 50 L172 70 L194 200 L168 206 L168 210 L72 210 L72 206 L46 200 Z" fill="#EDE0C2"></path>
    
    <line x1="116" y1="84" x2="120" y2="208" stroke-width="0.9" opacity="0.7"></line>
    <line x1="124" y1="84" x2="120" y2="208" stroke-width="0.9" opacity="0.7"></line>
    
    <line x1="120" y1="84" x2="120" y2="208" stroke-width="0.9" opacity="0.4"></line>
    
    <circle cx="118" cy="100" r="1.6" fill="#2A2A2A" stroke="none"></circle>
    <circle cx="118" cy="124" r="1.6" fill="#2A2A2A" stroke="none"></circle>
    <circle cx="118" cy="148" r="1.6" fill="#2A2A2A" stroke="none"></circle>
    <circle cx="118" cy="172" r="1.6" fill="#2A2A2A" stroke="none"></circle>
    <circle cx="118" cy="196" r="1.6" fill="#2A2A2A" stroke="none"></circle>
    
    <line x1="46" y1="200" x2="194" y2="200" stroke-width="0.9" opacity="0.6"></line>
    <line x1="52" y1="200" x2="52" y2="210" stroke-width="0.6" opacity="0.5"></line>
    <line x1="58" y1="200" x2="58" y2="210" stroke-width="0.6" opacity="0.5"></line>
    <line x1="64" y1="200" x2="64" y2="210" stroke-width="0.6" opacity="0.5"></line>
    <line x1="70" y1="200" x2="70" y2="210" stroke-width="0.6" opacity="0.5"></line>
    <line x1="76" y1="200" x2="76" y2="210" stroke-width="0.6" opacity="0.5"></line>
    <line x1="82" y1="200" x2="82" y2="210" stroke-width="0.6" opacity="0.5"></line>
    <line x1="88" y1="200" x2="88" y2="210" stroke-width="0.6" opacity="0.5"></line>
    <line x1="94" y1="200" x2="94" y2="210" stroke-width="0.6" opacity="0.5"></line>
    <line x1="100" y1="200" x2="100" y2="210" stroke-width="0.6" opacity="0.5"></line>
    <line x1="106" y1="200" x2="106" y2="210" stroke-width="0.6" opacity="0.5"></line>
    <line x1="112" y1="200" x2="112" y2="210" stroke-width="0.6" opacity="0.5"></line>
    <line x1="118" y1="200" x2="118" y2="210" stroke-width="0.6" opacity="0.5"></line>
    <line x1="124" y1="200" x2="124" y2="210" stroke-width="0.6" opacity="0.5"></line>
    <line x1="130" y1="200" x2="130" y2="210" stroke-width="0.6" opacity="0.5"></line>
    <line x1="136" y1="200" x2="136" y2="210" stroke-width="0.6" opacity="0.5"></line>
    <line x1="142" y1="200" x2="142" y2="210" stroke-width="0.6" opacity="0.5"></line>
    <line x1="148" y1="200" x2="148" y2="210" stroke-width="0.6" opacity="0.5"></line>
    <line x1="154" y1="200" x2="154" y2="210" stroke-width="0.6" opacity="0.5"></line>
    <line x1="160" y1="200" x2="160" y2="210" stroke-width="0.6" opacity="0.5"></line>
    <line x1="166" y1="200" x2="166" y2="210" stroke-width="0.6" opacity="0.5"></line>
    <line x1="172" y1="200" x2="172" y2="210" stroke-width="0.6" opacity="0.5"></line>
    <line x1="178" y1="200" x2="178" y2="210" stroke-width="0.6" opacity="0.5"></line>
    <line x1="184" y1="200" x2="184" y2="210" stroke-width="0.6" opacity="0.5"></line>
    <line x1="190" y1="200" x2="190" y2="210" stroke-width="0.6" opacity="0.5"></line>
    
    <line x1="62" y1="194" x2="80" y2="200" stroke-width="0.9" opacity="0.6"></line>
    <line x1="178" y1="194" x2="160" y2="200" stroke-width="0.9" opacity="0.6"></line>
    
    <path d="M96 50 L116 80" stroke-width="0.9" opacity="0.55"></path>
    <path d="M144 50 L124 80" stroke-width="0.9" opacity="0.55"></path>
  </g>
  <g fill="none" stroke="#8B6F47" stroke-width="0.9" stroke-linecap="round" stroke-dasharray="2.4 2.4" opacity="0.5">
    <path d="M46 202 L72 208"></path>
    <path d="M194 202 L168 208"></path>
    <path d="M72 208 L168 208"></path>
  </g>
</svg>