<svg xmlns="http://www.w3.org/2000/svg" viewBox="0 0 240 240" width="240" height="240">
  <g fill="none" stroke="#C8A658" stroke-width="1.6" stroke-linecap="round" stroke-linejoin="round">
    
    <path d="M48 60 Q72 110 120 168 Q168 110 192 60"></path>
    
    <circle cx="48" cy="60" r="2.6" fill="#FFFEF8" stroke-width="1.2"></circle>
    <circle cx="192" cy="60" r="2.6" fill="#FFFEF8" stroke-width="1.2"></circle>
    
    <circle cx="120" cy="172" r="3.4" fill="#C8A658" stroke="#2A2A2A" stroke-width="0.9"></circle>
  </g>
  
  <g stroke="#C8A658" stroke-width="0.7" opacity="0.6" stroke-linecap="round">
    <line x1="48.0" y1="58.4" x2="48.0" y2="61.6"></line>
    <line x1="51.7" y1="67.0" x2="51.5" y2="70.2"></line>
    <line x1="55.5" y1="75.6" x2="54.9" y2="78.8"></line>
    <line x1="59.2" y1="84.1" x2="58.4" y2="87.2"></line>
    <line x1="62.9" y1="92.5" x2="61.9" y2="95.5"></line>
    <line x1="66.6" y1="100.6" x2="65.4" y2="103.6"></line>
    <line x1="70.3" y1="108.5" x2="68.9" y2="111.4"></line>
    <line x1="74.0" y1="116.1" x2="72.4" y2="118.8"></line>
    <line x1="77.7" y1="123.4" x2="75.9" y2="126.0"></line>
    <line x1="81.4" y1="130.2" x2="79.4" y2="132.7"></line>
    <line x1="85.1" y1="136.7" x2="82.9" y2="138.9"></line>
    <line x1="88.8" y1="142.6" x2="86.4" y2="144.7"></line>
    <line x1="92.5" y1="148.1" x2="89.9" y2="149.9"></line>
    <line x1="96.2" y1="153.0" x2="93.4" y2="154.6"></line>
    <line x1="99.8" y1="157.3" x2="97.0" y2="158.7"></line>
    <line x1="103.5" y1="161.0" x2="100.5" y2="162.2"></line>
    <line x1="107.1" y1="164.1" x2="104.1" y2="165.1"></line>
    <line x1="110.8" y1="166.6" x2="107.6" y2="167.3"></line>
    <line x1="114.4" y1="168.4" x2="111.2" y2="168.9"></line>
    <line x1="118.0" y1="169.5" x2="114.8" y2="169.8"></line>
    <line x1="121.6" y1="170.0" x2="118.4" y2="170.0"></line>
    <line x1="125.2" y1="169.8" x2="122.0" y2="169.5"></line>
    <line x1="128.8" y1="168.9" x2="125.6" y2="168.4"></line>
    <line x1="132.4" y1="167.3" x2="129.2" y2="166.6"></line>
    <line x1="135.9" y1="165.1" x2="132.9" y2="164.1"></line>
    <line x1="139.5" y1="162.2" x2="136.5" y2="161.0"></line>
    <line x1="143.0" y1="158.7" x2="140.2" y2="157.3"></line>
    <line x1="146.6" y1="154.6" x2="143.8" y2="153.0"></line>
    <line x1="150.1" y1="149.9" x2="147.5" y2="148.1"></line>
    <line x1="153.6" y1="144.7" x2="151.2" y2="142.6"></line>
    <line x1="157.1" y1="138.9" x2="154.9" y2="136.7"></line>
    <line x1="160.6" y1="132.7" x2="158.6" y2="130.2"></line>
    <line x1="164.1" y1="126.0" x2="162.3" y2="123.4"></line>
    <line x1="167.6" y1="118.8" x2="166.0" y2="116.1"></line>
    <line x1="171.1" y1="111.4" x2="169.7" y2="108.5"></line>
    <line x1="174.6" y1="103.6" x2="173.4" y2="100.6"></line>
    <line x1="178.1" y1="95.5" x2="177.1" y2="92.5"></line>
    <line x1="181.6" y1="87.2" x2="180.8" y2="84.1"></line>
    <line x1="185.1" y1="78.8" x2="184.5" y2="75.6"></line>
    <line x1="188.5" y1="70.2" x2="188.3" y2="67.0"></line>
  </g>
</svg>