<svg xmlns="http://www.w3.org/2000/svg" viewBox="0 0 240 240" width="240" height="240">
  <g fill="none" stroke="#2A2A2A" stroke-width="1.4" stroke-linecap="round" stroke-linejoin="round">
    <path d="M70 64 L92 48 Q100 54 120 54 Q140 54 148 48 L170 64 L188 110 L168 118 L165 122 L165 200 Q120 204 75 200 L75 122 L72 118 L52 110 Z" fill="#A8A39A"></path>
    <path d="M100 54 Q110 70 120 70 Q130 70 140 54" fill="#A8A39A"></path>
    <path d="M100 54 L108 80" opacity="0.55" stroke-width="1"></path>
    <path d="M140 54 L132 80" opacity="0.55" stroke-width="1"></path>
    <path d="M75 122 Q90 110 100 112" opacity="0.5" stroke-width="0.9"></path>
    <path d="M165 122 Q150 110 140 112" opacity="0.5" stroke-width="0.9"></path>
    <g opacity="0.35" stroke="#2A2A2A" stroke-width="0.4"><line x1="148.1" y1="187.6" x2="149.7" y2="188.0"></line><line x1="115.0" y1="124.0" x2="116.6" y2="124.4"></line><line x1="151.5" y1="137.1" x2="153.1" y2="137.5"></line><line x1="112.7" y1="132.1" x2="114.3" y2="132.5"></line><line x1="127.2" y1="186.5" x2="128.8" y2="186.9"></line><line x1="138.2" y1="89.6" x2="139.8" y2="90.0"></line><line x1="129.6" y1="107.9" x2="131.2" y2="108.3"></line><line x1="126.3" y1="114.7" x2="127.9" y2="115.1"></line><line x1="80.9" y1="165.2" x2="82.5" y2="165.6"></line><line x1="102.3" y1="113.9" x2="103.9" y2="114.3"></line><line x1="100.8" y1="142.6" x2="102.4" y2="143.0"></line><line x1="109.6" y1="143.2" x2="111.2" y2="143.6"></line><line x1="113.5" y1="93.1" x2="115.1" y2="93.5"></line><line x1="130.4" y1="112.0" x2="132.0" y2="112.4"></line><line x1="147.1" y1="142.8" x2="148.7" y2="143.2"></line><line x1="103.8" y1="113.3" x2="105.4" y2="113.7"></line><line x1="132.3" y1="84.3" x2="133.9" y2="84.7"></line><line x1="100.7" y1="189.1" x2="102.3" y2="189.5"></line><line x1="108.0" y1="94.5" x2="109.6" y2="94.9"></line><line x1="149.0" y1="141.1" x2="150.6" y2="141.5"></line><line x1="152.1" y1="90.7" x2="153.7" y2="91.1"></line><line x1="110.0" y1="177.8" x2="111.6" y2="178.2"></line><line x1="109.7" y1="115.8" x2="111.3" y2="116.2"></line><line x1="104.1" y1="173.4" x2="105.7" y2="173.8"></line><line x1="132.6" y1="142.2" x2="134.2" y2="142.6"></line><line x1="87.4" y1="139.9" x2="89.0" y2="140.3"></line><line x1="91.5" y1="146.1" x2="93.1" y2="146.5"></line><line x1="137.5" y1="189.8" x2="139.1" y2="190.2"></line><line x1="119.9" y1="99.9" x2="121.5" y2="100.3"></line><line x1="144.1" y1="181.9" x2="145.7" y2="182.3"></line></g>
  </g>
  <g fill="none" stroke="#8B6F47" stroke-width="0.9" stroke-linecap="round" stroke-dasharray="2.4 2.4" opacity="0.5">
    <path d="M102 56 Q111 71 120 71 Q129 71 138 56"></path>
    <path d="M52 112 L75 120"></path>
    <path d="M188 112 L165 120"></path>
    <path d="M76 196 Q120 200 164 196"></path>
  </g>
</svg>