<svg xmlns="http://www.w3.org/2000/svg" viewBox="0 0 240 240" width="240" height="240">
  <g fill="none" stroke="#2A2A2A" stroke-width="1.4" stroke-linecap="round" stroke-linejoin="round">
    <path d="M70 64 L92 48 Q100 54 120 54 Q140 54 148 48 L170 64 L196 192 L168 200 L165 200 L165 204 Q120 208 75 204 L75 200 L72 200 L44 192 Z" fill="#9C9690"></path>
    <path d="M88 64 Q100 30 120 28 Q140 30 152 64 Q140 76 120 76 Q100 76 88 64 Z" fill="#9C9690"></path>
    <path d="M100 70 Q120 80 140 70" stroke-width="1" opacity="0.6"></path>
    <path d="M100 54 L108 80" opacity="0.55" stroke-width="1"></path>
    <path d="M140 54 L132 80" opacity="0.55" stroke-width="1"></path>
    <line x1="112" y1="64" x2="108" y2="86" stroke-width="0.9"></line>
    <line x1="128" y1="64" x2="132" y2="86" stroke-width="0.9"></line>
    <circle cx="108" cy="88" r="1.6" fill="#2A2A2A" stroke="none"></circle>
    <circle cx="132" cy="88" r="1.6" fill="#2A2A2A" stroke="none"></circle>
    <path d="M84 130 L156 130 L156 170 L84 170 Z" stroke-width="1"></path>
    <line x1="120" y1="130" x2="120" y2="170" stroke-width="0.8" opacity="0.5"></line>
  </g>
  <g fill="none" stroke="#8B6F47" stroke-width="0.9" stroke-linecap="round" stroke-dasharray="2.4 2.4" opacity="0.5">
    <path d="M100 70 Q120 80 140 70"></path>
    <path d="M44 194 L75 202"></path>
    <path d="M196 194 L165 202"></path>
    <path d="M76 200 Q120 204 164 200"></path>
  </g>
</svg>