<svg xmlns="http://www.w3.org/2000/svg" viewBox="0 0 240 240" width="240" height="240">
  <g fill="none" stroke="#2A2A2A" stroke-width="1.4" stroke-linecap="round" stroke-linejoin="round">
    <path d="M70 40 L170 40 L176 64 L182 218 L132 218 L130 138 L120 138 L110 138 L108 218 L58 218 L64 64 Z" fill="#3A4A6A"></path>
    
    <line x1="70" y1="56" x2="170" y2="56" stroke-width="1.2"></line>
    
    <line x1="120" y1="56" x2="120" y2="134" stroke-width="0.9" opacity="0.55"></line>
    <path d="M78 64 L100 64 L100 86 L78 86 Z" stroke-width="0.9" opacity="0.55"></path>
    <path d="M140 64 L162 64 L162 86 L140 86 Z" stroke-width="0.9" opacity="0.55"></path>
    <g opacity="0.22" stroke="#2A2A2A" stroke-width="0.5" stroke-linecap="round">
      <line x1="72" y1="70" x2="117" y2="72"></line>
      <line x1="122" y1="72" x2="168" y2="70"></line>
      <line x1="73.26220647721185" y1="75" x2="117.45969769413186" y2="77"></line>
      <line x1="122" y1="77" x2="166.73779352278817" y2="75"></line>
      <line x1="73.36394614023853" y1="80" x2="118.41614683654714" y2="82"></line>
      <line x1="122" y1="82" x2="166.6360538597615" y2="80"></line>
      <line x1="72.2116800120898" y1="85" x2="118.98999249660045" y2="87"></line>
      <line x1="122" y1="87" x2="167.7883199879102" y2="85"></line>
      <line x1="70.86479625703811" y1="90" x2="118.65364362086362" y2="92"></line>
      <line x1="122" y1="92" x2="169.1352037429619" y2="90"></line>
      <line x1="70.56161358800529" y1="95" x2="117.71633781453677" y2="97"></line>
      <line x1="122" y1="97" x2="169.4383864119947" y2="95"></line>
      <line x1="71.58087675270161" y1="100" x2="117.03982971334963" y2="102"></line>
      <line x1="122" y1="102" x2="168.4191232472984" y2="100"></line>
      <line x1="72.98547989807818" y1="105" x2="117.2460977456567" y2="107"></line>
      <line x1="122" y1="107" x2="167.01452010192182" y2="105"></line>
      <line x1="73.48403736993507" y1="110" x2="118.14550003380862" y2="112"></line>
      <line x1="122" y1="112" x2="166.51596263006493" y2="110"></line>
      <line x1="72.61817772786263" y1="115" x2="118.91113026188468" y2="117"></line>
      <line x1="122" y1="117" x2="167.38182227213736" y2="115"></line>
      <line x1="71.18396833366594" y1="120" x2="118.83907152907645" y2="122"></line>
      <line x1="122" y1="122" x2="168.81603166633406" y2="120"></line>
      <line x1="70.50001469017394" y1="125" x2="117.99557430201195" y2="127"></line>
      <line x1="122" y1="127" x2="169.49998530982606" y2="125"></line>
      <line x1="71.19514062299935" y1="130" x2="117.1561460412675" y2="132"></line>
      <line x1="122" y1="132" x2="168.80485937700064" y2="130"></line>
      <line x1="72.63025055523997" y1="135" x2="117.09255321854981" y2="137"></line>
      <line x1="122" y1="137" x2="167.36974944476003" y2="135"></line>
      <line x1="73.48591103354231" y1="140" x2="117.86326278179217" y2="142"></line>
      <line x1="122" y1="142" x2="166.5140889664577" y2="140"></line>
      <line x1="72.97543176023568" y1="145" x2="118.75968791285882" y2="147"></line>
      <line x1="122" y1="147" x2="167.02456823976433" y2="145"></line>
      <line x1="71.56814502500241" y1="150" x2="118.95765948032339" y2="152"></line>
      <line x1="122" y1="152" x2="168.4318549749976" y2="150"></line>
      <line x1="70.55790376218067" y1="155" x2="118.2751633380516" y2="157"></line>
      <line x1="122" y1="157" x2="169.44209623781933" y2="155"></line>
      <line x1="70.87351912984249" y1="160" x2="117.33968329175592" y2="162"></line>
      <line x1="122" y1="162" x2="169.1264808701575" y2="160"></line>
      <line x1="72.22481581449443" y1="165" x2="117.01129538181333" y2="167"></line>
      <line x1="122" y1="167" x2="167.77518418550557" y2="165"></line>
      <line x1="73.36941787609145" y1="170" x2="117.59191793818661" y2="172"></line>
      <line x1="122" y1="172" x2="166.63058212390857" y2="170"></line>
      <line x1="73.25498345780409" y1="175" x2="118.54772926022427" y2="177"></line>
      <line x1="122" y1="177" x2="166.7450165421959" y2="175"></line>
      <line x1="71.98672303606439" y1="180" x2="118.99996082639464" y2="182"></line>
      <line x1="122" y1="182" x2="168.0132769639356" y2="180"></line>
      <line x1="70.73066939373724" y1="185" x2="118.5328330203334" y2="187"></line>
      <line x1="122" y1="187" x2="169.26933060626277" y2="185"></line>
      <line x1="70.64163245699007" y1="190" x2="117.575820992663" y2="192"></line>
      <line x1="122" y1="192" x2="169.35836754300993" y2="190"></line>
      <line x1="71.80147237485335" y1="195" x2="117.00879718813653" y2="197"></line>
      <line x1="122" y1="197" x2="168.19852762514665" y2="195"></line>
    </g>
  </g>
  <g fill="none" stroke="#8B6F47" stroke-width="0.9" stroke-linecap="round" stroke-dasharray="2.4 2.4" opacity="0.55">
    <line x1="62" y1="214" x2="100" y2="214"></line>
    <line x1="140" y1="214" x2="178" y2="214"></line>
  </g>
</svg>