<svg xmlns="http://www.w3.org/2000/svg" viewBox="0 0 240 240" width="240" height="240">
  <g fill="none" stroke="#2A2A2A" stroke-width="1.4" stroke-linecap="round" stroke-linejoin="round">
    <path d="M68 70 L96 50 L108 58 Q120 64 132 58 L144 50 L172 70 L194 196 L168 204 L168 210 L72 210 L72 204 L46 196 Z" fill="#9DB2C7"></path>
    
    <path d="M96 50 L108 58 L120 76 L132 58 L144 50" fill="#9DB2C7"></path>
    
    <line x1="120" y1="76" x2="120" y2="208" stroke-width="0.9"></line>
    <circle cx="120" cy="92" r="1.8" fill="#2A2A2A" stroke="none"></circle>
    <circle cx="120" cy="118" r="1.8" fill="#2A2A2A" stroke="none"></circle>
    <circle cx="120" cy="144" r="1.8" fill="#2A2A2A" stroke="none"></circle>
    <circle cx="120" cy="170" r="1.8" fill="#2A2A2A" stroke="none"></circle>
    
    <path d="M84 100 L110 100 L110 130 L84 130 Z" stroke-width="1"></path>
    <path d="M130 100 L156 100 L156 130 L130 130 Z" stroke-width="1"></path>
    <path d="M84 100 L84 110 L110 110 L110 100" stroke-width="1"></path>
    <path d="M130 100 L130 110 L156 110 L156 100" stroke-width="1"></path>
    <circle cx="97" cy="106" r="1.4" fill="#2A2A2A" stroke="none"></circle>
    <circle cx="143" cy="106" r="1.4" fill="#2A2A2A" stroke="none"></circle>
    
    <path d="M68 88 Q108 92 120 88 Q132 92 172 88" stroke-width="0.9" opacity="0.6"></path>
  </g>
  <g fill="none" stroke="#8B6F47" stroke-width="0.9" stroke-linecap="round" stroke-dasharray="2.4 2.4" opacity="0.55">
    <path d="M46 198 L72 206"></path>
    <path d="M194 198 L168 206"></path>
    <path d="M72 208 L168 208"></path>
    <path d="M84 130 L110 130"></path>
    <path d="M130 130 L156 130"></path>
    <path d="M68 90 Q108 94 120 90 Q132 94 172 90"></path>
  </g>
</svg>