<svg xmlns="http://www.w3.org/2000/svg" viewBox="0 0 240 240" width="240" height="240">
  <g fill="none" stroke="#2A2A2A" stroke-width="1.4" stroke-linecap="round" stroke-linejoin="round">
    
    <path d="M72 30 L168 30 L172 48 L178 222 L140 224 L130 124 L120 124 L110 124 L100 224 L62 222 L68 48 Z" fill="#1F2B44"></path>
    <line x1="72" y1="46" x2="168" y2="46" stroke-width="1.2"></line>
    
    <line x1="72" y1="50" x2="168" y2="50" stroke-width="0.8" opacity="0.55"></line>
    
    <rect x="64" y="50" width="10" height="6" stroke-width="0.9"></rect>
    <rect x="166" y="50" width="10" height="6" stroke-width="0.9"></rect>
    
    <line x1="120" y1="46" x2="120" y2="118" stroke-width="0.7" opacity="0.55"></line>
    
    <path d="M78 56 Q74 72 86 80" stroke-width="1"></path>
    <path d="M162 56 Q166 72 154 80" stroke-width="1"></path>
    
    <line x1="96" y1="130" x2="84" y2="222" stroke-width="0.9" opacity="0.7"></line>
    <line x1="144" y1="130" x2="156" y2="222" stroke-width="0.9" opacity="0.7"></line>
    
    <path d="M62 218 L100 220" stroke-width="0.9"></path>
    <path d="M140 220 L178 218" stroke-width="0.9"></path>
  </g>
  <g fill="none" stroke="#8B6F47" stroke-width="0.9" stroke-linecap="round" stroke-dasharray="2.4 2.4" opacity="0.55">
    <line x1="72" y1="48" x2="168" y2="48"></line>
    <path d="M64 220 L100 222"></path>
    <path d="M140 222 L176 220"></path>
  </g>
</svg>