<svg xmlns="http://www.w3.org/2000/svg" viewBox="0 0 240 240" width="240" height="240">
  <g fill="none" stroke="#2A2A2A" stroke-width="1.4" stroke-linecap="round" stroke-linejoin="round">
    <path d="M70 64 L92 48 Q100 54 120 54 Q140 54 148 48 L170 64 L196 192 L168 200 L165 200 L165 204 Q120 208 75 204 L75 200 L72 200 L44 192 Z" fill="#2A3850"></path>
    <path d="M100 54 Q110 70 120 70 Q130 70 140 54" fill="#2A3850"></path>
    <path d="M100 54 L108 80" opacity="0.55" stroke-width="1"></path>
    <path d="M140 54 L132 80" opacity="0.55" stroke-width="1"></path>
    <line x1="60" y1="196" x2="60" y2="208" stroke="#2A2A2A" stroke-width="0.8" opacity="0.55"></line>
    <line x1="64" y1="196" x2="64" y2="208" stroke="#2A2A2A" stroke-width="0.8" opacity="0.55"></line>
    <line x1="68" y1="196" x2="68" y2="208" stroke="#2A2A2A" stroke-width="0.8" opacity="0.55"></line>
    <line x1="72" y1="196" x2="72" y2="208" stroke="#2A2A2A" stroke-width="0.8" opacity="0.55"></line>
    <line x1="76" y1="196" x2="76" y2="208" stroke="#2A2A2A" stroke-width="0.8" opacity="0.55"></line>
    <line x1="80" y1="196" x2="80" y2="208" stroke="#2A2A2A" stroke-width="0.8" opacity="0.55"></line>
    <line x1="160" y1="196" x2="160" y2="208" stroke="#2A2A2A" stroke-width="0.8" opacity="0.55"></line>
    <line x1="164" y1="196" x2="164" y2="208" stroke="#2A2A2A" stroke-width="0.8" opacity="0.55"></line>
    <line x1="168" y1="196" x2="168" y2="208" stroke="#2A2A2A" stroke-width="0.8" opacity="0.55"></line>
    <line x1="172" y1="196" x2="172" y2="208" stroke="#2A2A2A" stroke-width="0.8" opacity="0.55"></line>
    <line x1="176" y1="196" x2="176" y2="208" stroke="#2A2A2A" stroke-width="0.8" opacity="0.55"></line>
    <line x1="180" y1="196" x2="180" y2="208" stroke="#2A2A2A" stroke-width="0.8" opacity="0.55"></line>
    <line x1="78" y1="200" x2="78" y2="208" stroke="#2A2A2A" stroke-width="0.8" opacity="0.4"></line>
    <line x1="82" y1="200" x2="82" y2="208" stroke="#2A2A2A" stroke-width="0.8" opacity="0.4"></line>
    <line x1="86" y1="200" x2="86" y2="208" stroke="#2A2A2A" stroke-width="0.8" opacity="0.4"></line>
    <line x1="90" y1="200" x2="90" y2="208" stroke="#2A2A2A" stroke-width="0.8" opacity="0.4"></line>
    <line x1="94" y1="200" x2="94" y2="208" stroke="#2A2A2A" stroke-width="0.8" opacity="0.4"></line>
    <line x1="98" y1="200" x2="98" y2="208" stroke="#2A2A2A" stroke-width="0.8" opacity="0.4"></line>
    <line x1="102" y1="200" x2="102" y2="208" stroke="#2A2A2A" stroke-width="0.8" opacity="0.4"></line>
    <line x1="106" y1="200" x2="106" y2="208" stroke="#2A2A2A" stroke-width="0.8" opacity="0.4"></line>
    <line x1="110" y1="200" x2="110" y2="208" stroke="#2A2A2A" stroke-width="0.8" opacity="0.4"></line>
    <line x1="114" y1="200" x2="114" y2="208" stroke="#2A2A2A" stroke-width="0.8" opacity="0.4"></line>
    <line x1="118" y1="200" x2="118" y2="208" stroke="#2A2A2A" stroke-width="0.8" opacity="0.4"></line>
    <line x1="122" y1="200" x2="122" y2="208" stroke="#2A2A2A" stroke-width="0.8" opacity="0.4"></line>
    <line x1="126" y1="200" x2="126" y2="208" stroke="#2A2A2A" stroke-width="0.8" opacity="0.4"></line>
    <line x1="130" y1="200" x2="130" y2="208" stroke="#2A2A2A" stroke-width="0.8" opacity="0.4"></line>
    <line x1="134" y1="200" x2="134" y2="208" stroke="#2A2A2A" stroke-width="0.8" opacity="0.4"></line>
    <line x1="138" y1="200" x2="138" y2="208" stroke="#2A2A2A" stroke-width="0.8" opacity="0.4"></line>
    <line x1="142" y1="200" x2="142" y2="208" stroke="#2A2A2A" stroke-width="0.8" opacity="0.4"></line>
    <line x1="146" y1="200" x2="146" y2="208" stroke="#2A2A2A" stroke-width="0.8" opacity="0.4"></line>
    <line x1="150" y1="200" x2="150" y2="208" stroke="#2A2A2A" stroke-width="0.8" opacity="0.4"></line>
    <line x1="154" y1="200" x2="154" y2="208" stroke="#2A2A2A" stroke-width="0.8" opacity="0.4"></line>
    <line x1="158" y1="200" x2="158" y2="208" stroke="#2A2A2A" stroke-width="0.8" opacity="0.4"></line>
    <line x1="162" y1="200" x2="162" y2="208" stroke="#2A2A2A" stroke-width="0.8" opacity="0.4"></line>
  </g>
  <g fill="none" stroke="#8B6F47" stroke-width="0.9" stroke-linecap="round" stroke-dasharray="2.4 2.4" opacity="0.5">
    <path d="M102 56 Q111 71 120 71 Q129 71 138 56"></path>
    <path d="M44 194 L75 202"></path>
    <path d="M196 194 L165 202"></path>
    <path d="M76 200 Q120 204 164 200"></path>
  </g>
</svg>