<svg xmlns="http://www.w3.org/2000/svg" viewBox="0 0 240 240" width="240" height="240">
  <g fill="none" stroke="#2A2A2A" stroke-width="1.4" stroke-linecap="round" stroke-linejoin="round">
    
    <path d="M68 70 L96 50 L120 56 L144 50 L172 70 L194 200 L168 206 L168 210 L72 210 L72 206 L46 200 Z" fill="#1F2B44"></path>
    
    <path d="M104 56 L100 36 L140 36 L136 56" fill="#1F2B44" stroke-width="1.4"></path>
    
    <line x1="100" y1="42" x2="140" y2="42" stroke-width="0.9" opacity="0.6"></line>
    
    <rect x="117" y="36" width="6" height="78" stroke-width="1" fill="#1F2B44"></rect>
    
    <line x1="120" y1="36" x2="120" y2="114" stroke-width="0.9" stroke-dasharray="2 1.5" opacity="0.85"></line>
    
    <rect x="115" y="84" width="10" height="6" rx="1" stroke-width="1" fill="#0A0A0A"></rect>
    <line x1="120" y1="90" x2="120" y2="96" stroke-width="0.9"></line>
    <circle cx="120" cy="98" r="1.6" fill="#2A2A2A" stroke="none"></circle>
    
    <path d="M76 60 Q120 70 164 60" stroke-width="0.9" opacity="0.5"></path>
    
    <line x1="62" y1="194" x2="80" y2="200" stroke-width="0.9" opacity="0.7"></line>
    <line x1="178" y1="194" x2="160" y2="200" stroke-width="0.9" opacity="0.7"></line>
    <line x1="62" y1="194" x2="64" y2="200" stroke-width="0.5" opacity="0.5"></line>
    <line x1="65" y1="194.6" x2="67" y2="200.6" stroke-width="0.5" opacity="0.5"></line>
    <line x1="68" y1="195.2" x2="70" y2="201.2" stroke-width="0.5" opacity="0.5"></line>
    <line x1="71" y1="195.8" x2="73" y2="201.8" stroke-width="0.5" opacity="0.5"></line>
    <line x1="74" y1="196.4" x2="76" y2="202.4" stroke-width="0.5" opacity="0.5"></line>
    <line x1="77" y1="197" x2="79" y2="203" stroke-width="0.5" opacity="0.5"></line>
    
    <line x1="46" y1="200" x2="194" y2="200" stroke-width="0.9" opacity="0.5"></line>
    <line x1="52" y1="200" x2="52" y2="210" stroke-width="0.6" opacity="0.4"></line>
    <line x1="58" y1="200" x2="58" y2="210" stroke-width="0.6" opacity="0.4"></line>
    <line x1="64" y1="200" x2="64" y2="210" stroke-width="0.6" opacity="0.4"></line>
    <line x1="70" y1="200" x2="70" y2="210" stroke-width="0.6" opacity="0.4"></line>
    <line x1="76" y1="200" x2="76" y2="210" stroke-width="0.6" opacity="0.4"></line>
    <line x1="82" y1="200" x2="82" y2="210" stroke-width="0.6" opacity="0.4"></line>
    <line x1="88" y1="200" x2="88" y2="210" stroke-width="0.6" opacity="0.4"></line>
    <line x1="94" y1="200" x2="94" y2="210" stroke-width="0.6" opacity="0.4"></line>
    <line x1="100" y1="200" x2="100" y2="210" stroke-width="0.6" opacity="0.4"></line>
    <line x1="106" y1="200" x2="106" y2="210" stroke-width="0.6" opacity="0.4"></line>
    <line x1="112" y1="200" x2="112" y2="210" stroke-width="0.6" opacity="0.4"></line>
    <line x1="118" y1="200" x2="118" y2="210" stroke-width="0.6" opacity="0.4"></line>
    <line x1="124" y1="200" x2="124" y2="210" stroke-width="0.6" opacity="0.4"></line>
    <line x1="130" y1="200" x2="130" y2="210" stroke-width="0.6" opacity="0.4"></line>
    <line x1="136" y1="200" x2="136" y2="210" stroke-width="0.6" opacity="0.4"></line>
    <line x1="142" y1="200" x2="142" y2="210" stroke-width="0.6" opacity="0.4"></line>
    <line x1="148" y1="200" x2="148" y2="210" stroke-width="0.6" opacity="0.4"></line>
    <line x1="154" y1="200" x2="154" y2="210" stroke-width="0.6" opacity="0.4"></line>
    <line x1="160" y1="200" x2="160" y2="210" stroke-width="0.6" opacity="0.4"></line>
    <line x1="166" y1="200" x2="166" y2="210" stroke-width="0.6" opacity="0.4"></line>
    <line x1="172" y1="200" x2="172" y2="210" stroke-width="0.6" opacity="0.4"></line>
    <line x1="178" y1="200" x2="178" y2="210" stroke-width="0.6" opacity="0.4"></line>
    <line x1="184" y1="200" x2="184" y2="210" stroke-width="0.6" opacity="0.4"></line>
    <line x1="190" y1="200" x2="190" y2="210" stroke-width="0.6" opacity="0.4"></line>
  </g>
  <g fill="none" stroke="#8B6F47" stroke-width="0.9" stroke-linecap="round" stroke-dasharray="2.4 2.4" opacity="0.5">
    <path d="M46 202 L72 208"></path>
    <path d="M194 202 L168 208"></path>
    <path d="M72 208 L168 208"></path>
    
    <line x1="113" y1="38" x2="113" y2="114"></line>
    <line x1="127" y1="38" x2="127" y2="114"></line>
  </g>
</svg>