<svg xmlns="http://www.w3.org/2000/svg" viewBox="0 0 240 240" width="240" height="240">
  <g fill="none" stroke="#2A2A2A" stroke-width="1.4" stroke-linecap="round" stroke-linejoin="round">
    <path d="M64 76 L92 56 Q108 62 120 64 Q132 62 148 56 L176 76 L196 188 L172 196 L172 200 L68 200 L68 196 L44 188 Z" fill="#5C6646"></path>
    
    <path d="M96 56 L100 76 Q120 84 140 76 L144 56" fill="#5C6646"></path>
    
    <line x1="102" y1="64" x2="102" y2="76" stroke="#2A2A2A" stroke-width="0.8" opacity="0.5"></line>
    <line x1="108" y1="64" x2="108" y2="76" stroke="#2A2A2A" stroke-width="0.8" opacity="0.5"></line>
    <line x1="114" y1="64" x2="114" y2="76" stroke="#2A2A2A" stroke-width="0.8" opacity="0.5"></line>
    <line x1="120" y1="64" x2="120" y2="76" stroke="#2A2A2A" stroke-width="0.8" opacity="0.5"></line>
    <line x1="126" y1="64" x2="126" y2="76" stroke="#2A2A2A" stroke-width="0.8" opacity="0.5"></line>
    <line x1="132" y1="64" x2="132" y2="76" stroke="#2A2A2A" stroke-width="0.8" opacity="0.5"></line>
    <line x1="138" y1="64" x2="138" y2="76" stroke="#2A2A2A" stroke-width="0.8" opacity="0.5"></line>
    
    <line x1="120" y1="76" x2="120" y2="200" stroke-width="1.1"></line>
    <g stroke="#2A2A2A" stroke-width="0.6" opacity="0.6">
      <line x1="118" y1="78" x2="122" y2="78"></line>
      <line x1="118" y1="82" x2="122" y2="82"></line>
      <line x1="118" y1="86" x2="122" y2="86"></line>
      <line x1="118" y1="90" x2="122" y2="90"></line>
      <line x1="118" y1="94" x2="122" y2="94"></line>
      <line x1="118" y1="98" x2="122" y2="98"></line>
      <line x1="118" y1="102" x2="122" y2="102"></line>
      <line x1="118" y1="106" x2="122" y2="106"></line>
      <line x1="118" y1="110" x2="122" y2="110"></line>
      <line x1="118" y1="114" x2="122" y2="114"></line>
      <line x1="118" y1="118" x2="122" y2="118"></line>
      <line x1="118" y1="122" x2="122" y2="122"></line>
      <line x1="118" y1="126" x2="122" y2="126"></line>
      <line x1="118" y1="130" x2="122" y2="130"></line>
      <line x1="118" y1="134" x2="122" y2="134"></line>
      <line x1="118" y1="138" x2="122" y2="138"></line>
      <line x1="118" y1="142" x2="122" y2="142"></line>
      <line x1="118" y1="146" x2="122" y2="146"></line>
      <line x1="118" y1="150" x2="122" y2="150"></line>
      <line x1="118" y1="154" x2="122" y2="154"></line>
      <line x1="118" y1="158" x2="122" y2="158"></line>
      <line x1="118" y1="162" x2="122" y2="162"></line>
      <line x1="118" y1="166" x2="122" y2="166"></line>
      <line x1="118" y1="170" x2="122" y2="170"></line>
      <line x1="118" y1="174" x2="122" y2="174"></line>
      <line x1="118" y1="178" x2="122" y2="178"></line>
      <line x1="118" y1="182" x2="122" y2="182"></line>
      <line x1="118" y1="186" x2="122" y2="186"></line>
      <line x1="118" y1="190" x2="122" y2="190"></line>
      <line x1="118" y1="194" x2="122" y2="194"></line>
    </g>
    
    <path d="M52 116 L68 116 L68 138 L52 138 Z" stroke-width="1"></path>
    
    <line x1="46" y1="188" x2="46" y2="198" stroke="#2A2A2A" stroke-width="0.8" opacity="0.5"></line>
    <line x1="50" y1="188" x2="50" y2="198" stroke="#2A2A2A" stroke-width="0.8" opacity="0.5"></line>
    <line x1="54" y1="188" x2="54" y2="198" stroke="#2A2A2A" stroke-width="0.8" opacity="0.5"></line>
    <line x1="58" y1="188" x2="58" y2="198" stroke="#2A2A2A" stroke-width="0.8" opacity="0.5"></line>
    <line x1="62" y1="188" x2="62" y2="198" stroke="#2A2A2A" stroke-width="0.8" opacity="0.5"></line>
    <line x1="66" y1="188" x2="66" y2="198" stroke="#2A2A2A" stroke-width="0.8" opacity="0.5"></line>
    <line x1="174" y1="188" x2="174" y2="198" stroke="#2A2A2A" stroke-width="0.8" opacity="0.5"></line>
    <line x1="178" y1="188" x2="178" y2="198" stroke="#2A2A2A" stroke-width="0.8" opacity="0.5"></line>
    <line x1="182" y1="188" x2="182" y2="198" stroke="#2A2A2A" stroke-width="0.8" opacity="0.5"></line>
    <line x1="186" y1="188" x2="186" y2="198" stroke="#2A2A2A" stroke-width="0.8" opacity="0.5"></line>
    <line x1="190" y1="188" x2="190" y2="198" stroke="#2A2A2A" stroke-width="0.8" opacity="0.5"></line>
    <line x1="194" y1="188" x2="194" y2="198" stroke="#2A2A2A" stroke-width="0.8" opacity="0.5"></line>
    <line x1="72" y1="196" x2="72" y2="204" stroke="#2A2A2A" stroke-width="0.8" opacity="0.4"></line>
    <line x1="80" y1="196" x2="80" y2="204" stroke="#2A2A2A" stroke-width="0.8" opacity="0.4"></line>
    <line x1="90" y1="196" x2="90" y2="204" stroke="#2A2A2A" stroke-width="0.8" opacity="0.4"></line>
    <line x1="100" y1="196" x2="100" y2="204" stroke="#2A2A2A" stroke-width="0.8" opacity="0.4"></line>
    <line x1="110" y1="196" x2="110" y2="204" stroke="#2A2A2A" stroke-width="0.8" opacity="0.4"></line>
    <line x1="120" y1="196" x2="120" y2="204" stroke="#2A2A2A" stroke-width="0.8" opacity="0.4"></line>
    <line x1="130" y1="196" x2="130" y2="204" stroke="#2A2A2A" stroke-width="0.8" opacity="0.4"></line>
    <line x1="140" y1="196" x2="140" y2="204" stroke="#2A2A2A" stroke-width="0.8" opacity="0.4"></line>
    <line x1="150" y1="196" x2="150" y2="204" stroke="#2A2A2A" stroke-width="0.8" opacity="0.4"></line>
    <line x1="160" y1="196" x2="160" y2="204" stroke="#2A2A2A" stroke-width="0.8" opacity="0.4"></line>
    <line x1="170" y1="196" x2="170" y2="204" stroke="#2A2A2A" stroke-width="0.8" opacity="0.4"></line>
  </g>
</svg>