<svg xmlns="http://www.w3.org/2000/svg" viewBox="0 0 240 240" width="240" height="240">
  <g fill="none" stroke="#2A2A2A" stroke-width="1.4" stroke-linecap="round" stroke-linejoin="round">
    <path d="M64 70 L92 48 L108 60 Q120 70 132 60 L148 48 L176 70 L196 204 L168 210 L168 216 L72 216 L72 210 L44 204 Z" fill="#6B7458"></path>
    
    <path d="M92 48 L108 60 L120 80 L132 60 L148 48" fill="#6B7458"></path>
    
    <line x1="120" y1="80" x2="120" y2="214" stroke-width="1"></line>
    
    <circle cx="120" cy="100" r="1.8" fill="#2A2A2A" stroke="none"></circle>
    <circle cx="120" cy="130" r="1.8" fill="#2A2A2A" stroke="none"></circle>
    <circle cx="120" cy="160" r="1.8" fill="#2A2A2A" stroke="none"></circle>
    <circle cx="120" cy="190" r="1.8" fill="#2A2A2A" stroke="none"></circle>
    
    <path d="M76 110 L110 110 L110 144 L76 144 Z" stroke-width="1"></path>
    <path d="M130 110 L164 110 L164 144 L130 144 Z" stroke-width="1"></path>
    <line x1="76" y1="120" x2="110" y2="120" stroke-width="0.8" opacity="0.5"></line>
    <line x1="130" y1="120" x2="164" y2="120" stroke-width="0.8" opacity="0.5"></line>
  </g>
  <g fill="none" stroke="#8B6F47" stroke-width="0.9" stroke-linecap="round" stroke-dasharray="2.4 2.4" opacity="0.5">
    <path d="M44 206 L72 212"></path>
    <path d="M196 206 L168 212"></path>
    <path d="M72 214 L168 214"></path>
    <path d="M76 144 L110 144"></path>
    <path d="M130 144 L164 144"></path>
  </g>
</svg>