<svg xmlns="http://www.w3.org/2000/svg" viewBox="0 0 240 240" width="240" height="240">
  <g fill="none" stroke="#2A2A2A" stroke-width="0.8" stroke-linecap="round" stroke-linejoin="round">
    
    <g transform="translate(51.7 47.4) rotate(99.4)">
          <ellipse rx="4.2" ry="2.4" fill="#C8C8CC" stroke="#2A2A2A" stroke-width="0.7"></ellipse>
        </g>
<g transform="translate(55.0 62.0) rotate(54.7)">
          <ellipse rx="4.2" ry="2.4" fill="#7A7A80" stroke="#2A2A2A" stroke-width="0.7"></ellipse>
        </g>
<g transform="translate(58.3 75.7) rotate(98.1)">
          <ellipse rx="4.2" ry="2.4" fill="#C8C8CC" stroke="#2A2A2A" stroke-width="0.7"></ellipse>
        </g>
<g transform="translate(61.7 88.8) rotate(53.3)">
          <ellipse rx="4.2" ry="2.4" fill="#7A7A80" stroke="#2A2A2A" stroke-width="0.7"></ellipse>
        </g>
<g transform="translate(65.0 101.1) rotate(96.4)">
          <ellipse rx="4.2" ry="2.4" fill="#C8C8CC" stroke="#2A2A2A" stroke-width="0.7"></ellipse>
        </g>
<g transform="translate(68.3 112.7) rotate(51.5)">
          <ellipse rx="4.2" ry="2.4" fill="#7A7A80" stroke="#2A2A2A" stroke-width="0.7"></ellipse>
        </g>
<g transform="translate(71.7 123.6) rotate(94.4)">
          <ellipse rx="4.2" ry="2.4" fill="#C8C8CC" stroke="#2A2A2A" stroke-width="0.7"></ellipse>
        </g>
<g transform="translate(75.0 133.8) rotate(49.2)">
          <ellipse rx="4.2" ry="2.4" fill="#7A7A80" stroke="#2A2A2A" stroke-width="0.7"></ellipse>
        </g>
<g transform="translate(78.3 143.2) rotate(91.8)">
          <ellipse rx="4.2" ry="2.4" fill="#C8C8CC" stroke="#2A2A2A" stroke-width="0.7"></ellipse>
        </g>
<g transform="translate(81.7 151.9) rotate(46.2)">
          <ellipse rx="4.2" ry="2.4" fill="#7A7A80" stroke="#2A2A2A" stroke-width="0.7"></ellipse>
        </g>
<g transform="translate(85.0 159.9) rotate(88.4)">
          <ellipse rx="4.2" ry="2.4" fill="#C8C8CC" stroke="#2A2A2A" stroke-width="0.7"></ellipse>
        </g>
<g transform="translate(88.3 167.2) rotate(42.2)">
          <ellipse rx="4.2" ry="2.4" fill="#7A7A80" stroke="#2A2A2A" stroke-width="0.7"></ellipse>
        </g>
<g transform="translate(91.7 173.7) rotate(83.6)">
          <ellipse rx="4.2" ry="2.4" fill="#C8C8CC" stroke="#2A2A2A" stroke-width="0.7"></ellipse>
        </g>
<g transform="translate(95.0 179.5) rotate(36.5)">
          <ellipse rx="4.2" ry="2.4" fill="#7A7A80" stroke="#2A2A2A" stroke-width="0.7"></ellipse>
        </g>
<g transform="translate(98.3 184.6) rotate(76.7)">
          <ellipse rx="4.2" ry="2.4" fill="#C8C8CC" stroke="#2A2A2A" stroke-width="0.7"></ellipse>
        </g>
<g transform="translate(101.7 188.9) rotate(28.1)">
          <ellipse rx="4.2" ry="2.4" fill="#7A7A80" stroke="#2A2A2A" stroke-width="0.7"></ellipse>
        </g>
<g transform="translate(105.0 192.6) rotate(66.4)">
          <ellipse rx="4.2" ry="2.4" fill="#C8C8CC" stroke="#2A2A2A" stroke-width="0.7"></ellipse>
        </g>
<g transform="translate(108.3 195.5) rotate(15.3)">
          <ellipse rx="4.2" ry="2.4" fill="#7A7A80" stroke="#2A2A2A" stroke-width="0.7"></ellipse>
        </g>
<g transform="translate(111.7 197.6) rotate(50.6)">
          <ellipse rx="4.2" ry="2.4" fill="#C8C8CC" stroke="#2A2A2A" stroke-width="0.7"></ellipse>
        </g>
<g transform="translate(115.0 199.1) rotate(-3.9)">
          <ellipse rx="4.2" ry="2.4" fill="#7A7A80" stroke="#2A2A2A" stroke-width="0.7"></ellipse>
        </g>
<g transform="translate(118.3 199.8) rotate(28.2)">
          <ellipse rx="4.2" ry="2.4" fill="#C8C8CC" stroke="#2A2A2A" stroke-width="0.7"></ellipse>
        </g>
<g transform="translate(121.7 199.8) rotate(-28.2)">
          <ellipse rx="4.2" ry="2.4" fill="#7A7A80" stroke="#2A2A2A" stroke-width="0.7"></ellipse>
        </g>
<g transform="translate(125.0 199.1) rotate(3.9)">
          <ellipse rx="4.2" ry="2.4" fill="#C8C8CC" stroke="#2A2A2A" stroke-width="0.7"></ellipse>
        </g>
<g transform="translate(128.3 197.6) rotate(-50.6)">
          <ellipse rx="4.2" ry="2.4" fill="#7A7A80" stroke="#2A2A2A" stroke-width="0.7"></ellipse>
        </g>
<g transform="translate(131.7 195.5) rotate(-15.3)">
          <ellipse rx="4.2" ry="2.4" fill="#C8C8CC" stroke="#2A2A2A" stroke-width="0.7"></ellipse>
        </g>
<g transform="translate(135.0 192.6) rotate(-66.4)">
          <ellipse rx="4.2" ry="2.4" fill="#7A7A80" stroke="#2A2A2A" stroke-width="0.7"></ellipse>
        </g>
<g transform="translate(138.3 188.9) rotate(-28.1)">
          <ellipse rx="4.2" ry="2.4" fill="#C8C8CC" stroke="#2A2A2A" stroke-width="0.7"></ellipse>
        </g>
<g transform="translate(141.7 184.6) rotate(-76.7)">
          <ellipse rx="4.2" ry="2.4" fill="#7A7A80" stroke="#2A2A2A" stroke-width="0.7"></ellipse>
        </g>
<g transform="translate(145.0 179.5) rotate(-36.5)">
          <ellipse rx="4.2" ry="2.4" fill="#C8C8CC" stroke="#2A2A2A" stroke-width="0.7"></ellipse>
        </g>
<g transform="translate(148.3 173.7) rotate(-83.6)">
          <ellipse rx="4.2" ry="2.4" fill="#7A7A80" stroke="#2A2A2A" stroke-width="0.7"></ellipse>
        </g>
<g transform="translate(151.7 167.2) rotate(-42.2)">
          <ellipse rx="4.2" ry="2.4" fill="#C8C8CC" stroke="#2A2A2A" stroke-width="0.7"></ellipse>
        </g>
<g transform="translate(155.0 159.9) rotate(-88.4)">
          <ellipse rx="4.2" ry="2.4" fill="#7A7A80" stroke="#2A2A2A" stroke-width="0.7"></ellipse>
        </g>
<g transform="translate(158.3 151.9) rotate(-46.2)">
          <ellipse rx="4.2" ry="2.4" fill="#C8C8CC" stroke="#2A2A2A" stroke-width="0.7"></ellipse>
        </g>
<g transform="translate(161.7 143.2) rotate(-91.8)">
          <ellipse rx="4.2" ry="2.4" fill="#7A7A80" stroke="#2A2A2A" stroke-width="0.7"></ellipse>
        </g>
<g transform="translate(165.0 133.8) rotate(-49.2)">
          <ellipse rx="4.2" ry="2.4" fill="#C8C8CC" stroke="#2A2A2A" stroke-width="0.7"></ellipse>
        </g>
<g transform="translate(168.3 123.6) rotate(-94.4)">
          <ellipse rx="4.2" ry="2.4" fill="#7A7A80" stroke="#2A2A2A" stroke-width="0.7"></ellipse>
        </g>
<g transform="translate(171.7 112.7) rotate(-51.5)">
          <ellipse rx="4.2" ry="2.4" fill="#C8C8CC" stroke="#2A2A2A" stroke-width="0.7"></ellipse>
        </g>
<g transform="translate(175.0 101.1) rotate(-96.4)">
          <ellipse rx="4.2" ry="2.4" fill="#7A7A80" stroke="#2A2A2A" stroke-width="0.7"></ellipse>
        </g>
<g transform="translate(178.3 88.8) rotate(-53.3)">
          <ellipse rx="4.2" ry="2.4" fill="#C8C8CC" stroke="#2A2A2A" stroke-width="0.7"></ellipse>
        </g>
<g transform="translate(181.7 75.7) rotate(-98.1)">
          <ellipse rx="4.2" ry="2.4" fill="#7A7A80" stroke="#2A2A2A" stroke-width="0.7"></ellipse>
        </g>
<g transform="translate(185.0 62.0) rotate(-54.7)">
          <ellipse rx="4.2" ry="2.4" fill="#C8C8CC" stroke="#2A2A2A" stroke-width="0.7"></ellipse>
        </g>
<g transform="translate(188.3 47.4) rotate(-99.4)">
          <ellipse rx="4.2" ry="2.4" fill="#7A7A80" stroke="#2A2A2A" stroke-width="0.7"></ellipse>
        </g>

    
    <g transform="translate(50 40) rotate(-30)">
      <rect x="-4" y="-2.5" width="8" height="5" rx="2.5" fill="#C8C8CC" stroke="#2A2A2A" stroke-width="0.8"></rect>
      <line x1="-1" y1="-1" x2="-1" y2="1" stroke-width="0.5"></line>
    </g>
    
    <g transform="translate(190 40)">
      <circle r="3" fill="#C8C8CC" stroke="#2A2A2A" stroke-width="0.7"></circle>
      <circle r="1.4" fill="#FFFEF8" stroke="#2A2A2A" stroke-width="0.5"></circle>
    </g>
  </g>
  
  <g fill="none" stroke="#8B6F47" stroke-width="0.7" stroke-dasharray="2 2" opacity="0.4">
    <path d="M50 44 Q120 218 190 44"></path>
  </g>
</svg>