<svg xmlns="http://www.w3.org/2000/svg" viewBox="0 0 240 240" width="240" height="240">
  <g fill="none" stroke="#2A2A2A" stroke-width="1.4" stroke-linecap="round" stroke-linejoin="round">
    
    <path d="M96 20 L144 20 L142 76 L98 76 Z" fill="#1A1A1A"></path>
    
    <circle cx="120" cy="30" r="1.4" fill="#FFFEF8" stroke="#2A2A2A" stroke-width="0.6"></circle>
    <circle cx="120" cy="40" r="1.4" fill="#FFFEF8" stroke="#2A2A2A" stroke-width="0.6"></circle>
    <circle cx="120" cy="50" r="1.4" fill="#FFFEF8" stroke="#2A2A2A" stroke-width="0.6"></circle>
    <circle cx="120" cy="60" r="1.4" fill="#FFFEF8" stroke="#2A2A2A" stroke-width="0.6"></circle>
    
    <path d="M98 164 L142 164 L144 220 L96 220 Z" fill="#1A1A1A"></path>
    
    <rect x="104" y="180" width="32" height="6" stroke-width="0.9"></rect>
    <rect x="104" y="194" width="32" height="6" stroke-width="0.9"></rect>
    
    <rect x="78" y="76" width="84" height="88" rx="22" ry="22" fill="#0A0A0A"></rect>
    <rect x="82" y="80" width="76" height="80" rx="19" ry="19" stroke-width="0.8" opacity="0.8"></rect>
    
    <rect x="162" y="106" width="6" height="14" rx="2" fill="#2A2A2A"></rect>
    <line x1="163" y1="108" x2="167" y2="108" stroke="#FFFEF8" stroke-width="0.5" opacity="0.6"></line>
    <line x1="163" y1="112" x2="167" y2="112" stroke="#FFFEF8" stroke-width="0.5" opacity="0.6"></line>
    <line x1="163" y1="116" x2="167" y2="116" stroke="#FFFEF8" stroke-width="0.5" opacity="0.6"></line>
    
    <rect x="163" y="130" width="4" height="14" rx="1.5" fill="#2A2A2A"></rect>
    
    <rect x="88" y="86" width="64" height="68" rx="14" ry="14" fill="#0F1A0F" stroke="none"></rect>
    
    <g stroke="#FFFEF8" stroke-width="0.9" opacity="0.85">
      <line x1="120" y1="92" x2="120" y2="96"></line>
      <line x1="120" y1="144" x2="120" y2="148"></line>
      <line x1="94" y1="120" x2="98" y2="120"></line>
      <line x1="142" y1="120" x2="146" y2="120"></line>
    </g>
    
    <text x="120" y="116" font-family="-apple-system, sans-serif" font-size="11" font-weight="600" fill="#FFFEF8" text-anchor="middle" stroke="none" opacity="0.95">8,420</text>
    <text x="120" y="128" font-family="-apple-system, sans-serif" font-size="6.5" font-weight="500" fill="#FFFEF8" text-anchor="middle" stroke="none" opacity="0.7" letter-spacing="1">STEPS</text>
    
    <path d="M104 142 A14 14 0 0 1 136 142" stroke="#FFFEF8" stroke-width="1.4" fill="none" opacity="0.7"></path>
    <path d="M104 142 A14 14 0 0 1 124 134" stroke="#FFFEF8" stroke-width="1.4" fill="none" opacity="1"></path>
  </g>
  <g fill="none" stroke="#8B6F47" stroke-width="0.8" stroke-linecap="round" stroke-dasharray="2 2" opacity="0.5">
    <rect x="80" y="78" width="80" height="84" rx="20" ry="20"></rect>
  </g>
</svg>