<svg xmlns="http://www.w3.org/2000/svg" viewBox="0 0 240 240" width="240" height="240">
  <g fill="none" stroke="#2A2A2A" stroke-width="1.4" stroke-linecap="round" stroke-linejoin="round">
    <path d="M64 70 L92 48 L108 56 L120 60 L132 56 L148 48 L176 70 L196 196 L172 204 L172 218 L68 218 L68 204 L44 196 Z" fill="#A77E50"></path>
    <path d="M96 50 L106 90 L120 60 L134 90 L144 50" fill="#A77E50"></path>
    <circle cx="120" cy="130" r="1.8" fill="#2A2A2A" stroke="none"></circle>
    <circle cx="120" cy="148" r="1.8" fill="#2A2A2A" stroke="none"></circle>
    <circle cx="120" cy="166" r="1.8" fill="#2A2A2A" stroke="none"></circle>
    
    <path d="M76 158 L106 158 L106 168 L76 168 Z" stroke-width="1" fill="none"></path>
    <path d="M134 158 L164 158 L164 168 L134 168 Z" stroke-width="1" fill="none"></path>
<g stroke="#8B6F47" stroke-width="0.7" stroke-linecap="round" opacity="0.45"><line x1="71.1" y1="134.4" x2="72.5" y2="135.0"></line><line x1="132.8" y1="156.5" x2="134.2" y2="157.1"></line><line x1="84.7" y1="189.0" x2="86.1" y2="189.6"></line><line x1="169.5" y1="180.7" x2="170.9" y2="181.3"></line><line x1="141.6" y1="128.3" x2="143.0" y2="128.9"></line><line x1="142.5" y1="114.4" x2="143.9" y2="115.0"></line><line x1="144.7" y1="111.8" x2="146.1" y2="112.4"></line><line x1="100.0" y1="143.1" x2="101.4" y2="143.7"></line><line x1="176.3" y1="113.3" x2="177.7" y2="113.9"></line><line x1="57.3" y1="103.0" x2="58.7" y2="103.6"></line><line x1="173.2" y1="92.9" x2="174.6" y2="93.5"></line><line x1="134.4" y1="96.7" x2="135.8" y2="97.3"></line><line x1="136.8" y1="122.6" x2="138.2" y2="123.2"></line><line x1="182.9" y1="186.1" x2="184.3" y2="186.7"></line><line x1="155.0" y1="149.1" x2="156.4" y2="149.7"></line><line x1="93.8" y1="141.3" x2="95.2" y2="141.9"></line><line x1="157.6" y1="155.2" x2="159.0" y2="155.8"></line><line x1="110.8" y1="121.3" x2="112.2" y2="121.9"></line><line x1="69.4" y1="102.3" x2="70.8" y2="102.9"></line><line x1="72.6" y1="168.3" x2="74.0" y2="168.9"></line><line x1="55.6" y1="108.0" x2="57.0" y2="108.6"></line><line x1="124.2" y1="91.6" x2="125.6" y2="92.2"></line><line x1="126.3" y1="157.7" x2="127.7" y2="158.3"></line><line x1="113.4" y1="156.1" x2="114.8" y2="156.7"></line><line x1="119.0" y1="144.2" x2="120.4" y2="144.8"></line><line x1="98.6" y1="144.1" x2="100.0" y2="144.7"></line><line x1="163.3" y1="109.6" x2="164.7" y2="110.2"></line><line x1="125.8" y1="156.4" x2="127.2" y2="157.0"></line><line x1="183.7" y1="145.7" x2="185.1" y2="146.3"></line><line x1="95.9" y1="137.9" x2="97.3" y2="138.5"></line><line x1="109.1" y1="159.3" x2="110.5" y2="159.9"></line><line x1="76.4" y1="102.0" x2="77.8" y2="102.6"></line><line x1="88.2" y1="161.1" x2="89.6" y2="161.7"></line><line x1="70.3" y1="166.3" x2="71.7" y2="166.9"></line><line x1="142.7" y1="133.3" x2="144.1" y2="133.9"></line><line x1="176.4" y1="121.0" x2="177.8" y2="121.6"></line><line x1="55.9" y1="136.2" x2="57.3" y2="136.8"></line><line x1="74.0" y1="177.8" x2="75.4" y2="178.4"></line><line x1="86.2" y1="150.9" x2="87.6" y2="151.5"></line><line x1="131.7" y1="168.3" x2="133.1" y2="168.9"></line><line x1="129.5" y1="163.0" x2="130.9" y2="163.6"></line><line x1="162.7" y1="113.1" x2="164.1" y2="113.7"></line><line x1="97.3" y1="138.9" x2="98.7" y2="139.5"></line><line x1="168.0" y1="109.4" x2="169.4" y2="110.0"></line><line x1="152.5" y1="181.9" x2="153.9" y2="182.5"></line><line x1="104.7" y1="106.0" x2="106.1" y2="106.6"></line><line x1="123.3" y1="110.1" x2="124.7" y2="110.7"></line><line x1="69.2" y1="94.1" x2="70.6" y2="94.7"></line><line x1="150.4" y1="186.1" x2="151.8" y2="186.7"></line><line x1="112.2" y1="140.7" x2="113.6" y2="141.3"></line><line x1="166.1" y1="123.1" x2="167.5" y2="123.7"></line><line x1="139.7" y1="171.1" x2="141.1" y2="171.7"></line><line x1="96.8" y1="118.9" x2="98.2" y2="119.5"></line><line x1="140.4" y1="171.5" x2="141.8" y2="172.1"></line><line x1="125.9" y1="129.8" x2="127.3" y2="130.4"></line><line x1="129.9" y1="172.5" x2="131.3" y2="173.1"></line><line x1="65.5" y1="173.4" x2="66.9" y2="174.0"></line><line x1="61.8" y1="117.9" x2="63.2" y2="118.5"></line><line x1="150.0" y1="123.4" x2="151.4" y2="124.0"></line><line x1="98.3" y1="117.7" x2="99.7" y2="118.3"></line></g>
    <g stroke="#8B6F47" stroke-width="0.9" stroke-dasharray="2.4 2.4" opacity="0.55" fill="none">
      <path d="M44 198 L68 206"></path>
      <path d="M196 198 L172 206"></path>
      <path d="M68 218 L172 218"></path>
    </g>
  </g>
</svg>