<svg xmlns="http://www.w3.org/2000/svg" viewBox="0 0 240 240" width="240" height="240">
  <g fill="none" stroke="#2A2A2A" stroke-width="1.4" stroke-linecap="round" stroke-linejoin="round">
    
    <path d="M58 86 L182 86 L188 220 L52 220 Z" fill="#A77E50"></path>
    
    <path d="M82 86 Q82 50 100 50 Q120 50 120 86"></path>
    <path d="M120 86 Q120 50 140 50 Q158 50 158 86"></path>
    
    <line x1="58" y1="92" x2="182" y2="92" stroke-width="0.9" opacity="0.6"></line>
    <g><circle cx="180.3" cy="199.7" r="0.7" fill="#8B6F47" opacity="0.45"></circle><circle cx="164.1" cy="148.9" r="0.7" fill="#8B6F47" opacity="0.45"></circle><circle cx="171.5" cy="183.2" r="0.7" fill="#8B6F47" opacity="0.45"></circle><circle cx="163.2" cy="152.3" r="0.7" fill="#8B6F47" opacity="0.45"></circle><circle cx="71.4" cy="165.2" r="0.7" fill="#8B6F47" opacity="0.45"></circle><circle cx="118.7" cy="114.4" r="0.7" fill="#8B6F47" opacity="0.45"></circle><circle cx="137.8" cy="184.0" r="0.7" fill="#8B6F47" opacity="0.45"></circle><circle cx="146.6" cy="132.7" r="0.7" fill="#8B6F47" opacity="0.45"></circle><circle cx="92.8" cy="174.1" r="0.7" fill="#8B6F47" opacity="0.45"></circle><circle cx="123.8" cy="177.9" r="0.7" fill="#8B6F47" opacity="0.45"></circle><circle cx="100.1" cy="192.1" r="0.7" fill="#8B6F47" opacity="0.45"></circle><circle cx="142.1" cy="128.5" r="0.7" fill="#8B6F47" opacity="0.45"></circle><circle cx="94.4" cy="98.1" r="0.7" fill="#8B6F47" opacity="0.45"></circle><circle cx="114.3" cy="187.5" r="0.7" fill="#8B6F47" opacity="0.45"></circle><circle cx="101.2" cy="170.6" r="0.7" fill="#8B6F47" opacity="0.45"></circle><circle cx="64.5" cy="175.3" r="0.7" fill="#8B6F47" opacity="0.45"></circle><circle cx="121.0" cy="202.8" r="0.7" fill="#8B6F47" opacity="0.45"></circle><circle cx="82.8" cy="176.5" r="0.7" fill="#8B6F47" opacity="0.45"></circle><circle cx="107.3" cy="136.7" r="0.7" fill="#8B6F47" opacity="0.45"></circle><circle cx="126.1" cy="205.1" r="0.7" fill="#8B6F47" opacity="0.45"></circle><circle cx="102.1" cy="163.0" r="0.7" fill="#8B6F47" opacity="0.45"></circle><circle cx="96.4" cy="117.3" r="0.7" fill="#8B6F47" opacity="0.45"></circle></g>
  </g>
  <g fill="none" stroke="#8B6F47" stroke-width="0.9" stroke-linecap="round" stroke-dasharray="2.4 2.4" opacity="0.55">
    <path d="M58 88 L182 88"></path>
    <path d="M52 218 L188 218"></path>
    <path d="M58 92 L52 218"></path>
    <path d="M182 92 L188 218"></path>
  </g>
</svg>