<svg xmlns="http://www.w3.org/2000/svg" viewBox="0 0 240 240" width="240" height="240">
  <g fill="none" stroke="#2A2A2A" stroke-width="1.4" stroke-linecap="round" stroke-linejoin="round">
    
    <path d="M28 184 L30 158 Q34 144 56 138 L94 134 Q108 144 130 144 L172 138 Q200 138 220 152 Q228 162 228 184 Z" fill="#A77E50"></path>
    
    <path d="M50 138 Q74 124 96 130 Q108 142 130 142"></path>
    
    <path d="M104 144 L104 156 Q120 162 136 156 L136 144" stroke-width="1"></path>
    
    <path d="M114 150 L120 146 L126 150 L120 154 Z" stroke-width="0.9"></path>
    
    <path d="M148 142 Q170 144 184 152 Q200 158 210 168" stroke-width="0.9" opacity="0.7"></path>
    
    <line x1="38" y1="158" x2="46" y2="172" stroke-width="0.9"></line>
    
    <path d="M28 184 L228 184 L226 192 L226 192 L34 192 Z" fill="#FFFEF8"></path>
    <line x1="28" y1="188" x2="228" y2="188" stroke-width="0.7" opacity="0.6"></line>
    
    <path d="M28 192 L34 192 L36 208 L24 208 L24 192 Z"></path>
    <g fill="#8B6F47" opacity="0.45" stroke="none">
      <circle cx="80.5" cy="154.7" r="0.7"></circle><circle cx="92.4" cy="170.5" r="0.7"></circle><circle cx="172.8" cy="156.7" r="0.7"></circle><circle cx="187.5" cy="152.1" r="0.7"></circle><circle cx="79.9" cy="163.3" r="0.7"></circle><circle cx="111.0" cy="164.5" r="0.7"></circle><circle cx="97.1" cy="157.4" r="0.7"></circle><circle cx="68.3" cy="162.2" r="0.7"></circle><circle cx="84.1" cy="172.4" r="0.7"></circle><circle cx="124.8" cy="172.4" r="0.7"></circle><circle cx="119.1" cy="173.8" r="0.7"></circle><circle cx="177.4" cy="172.9" r="0.7"></circle><circle cx="141.4" cy="168.9" r="0.7"></circle><circle cx="191.2" cy="177.7" r="0.7"></circle><circle cx="130.0" cy="177.9" r="0.7"></circle><circle cx="171.7" cy="169.8" r="0.7"></circle>
    </g>
  </g>
</svg>