<svg xmlns="http://www.w3.org/2000/svg" viewBox="0 0 240 240" width="240" height="240">
  <g fill="none" stroke="#2A2A2A" stroke-width="1.4" stroke-linecap="round" stroke-linejoin="round">
    
    <path d="M22 168 L24 144 Q28 130 50 122 L88 114 Q102 96 128 96 Q156 96 178 110 Q204 120 218 138 Q226 150 226 168 Z" fill="#FFFEF8"></path>
    
    <path d="M30 168 L34 156 Q40 148 60 142 L92 138 Q102 142 110 142 Q116 142 124 138 L166 134 Q196 134 214 150 Q222 158 222 168" stroke-width="1"></path>
    
    <path d="M178 120 Q182 144 186 168" stroke-width="1"></path>
    
    <path d="M84 156 Q120 144 168 154" stroke-width="1.6"></path>
    <path d="M84 156 Q88 162 96 162" stroke-width="1.4"></path>
    
    <path d="M86 116 Q100 90 128 96"></path>
    <path d="M128 96 Q140 106 158 116"></path>
    
    <path d="M104 124 Q120 116 138 124" stroke-width="0.9" opacity="0.7"></path>
    <path d="M104 124 L104 148" stroke-width="0.8" opacity="0.6"></path>
    <path d="M138 124 L138 148" stroke-width="0.8" opacity="0.6"></path>
    
    <path d="M108 130 L120 122 M114 138 L126 130 M120 146 L132 138 M126 154 L138 146" stroke-width="1"></path>
    
    <circle cx="108" cy="130" r="0.9" fill="#2A2A2A" stroke="none"></circle>
    <circle cx="120" cy="122" r="0.9" fill="#2A2A2A" stroke="none"></circle>
    <circle cx="114" cy="138" r="0.9" fill="#2A2A2A" stroke="none"></circle>
    <circle cx="126" cy="130" r="0.9" fill="#2A2A2A" stroke="none"></circle>
    <circle cx="120" cy="146" r="0.9" fill="#2A2A2A" stroke="none"></circle>
    <circle cx="132" cy="138" r="0.9" fill="#2A2A2A" stroke="none"></circle>
    <circle cx="126" cy="154" r="0.9" fill="#2A2A2A" stroke="none"></circle>
    <circle cx="138" cy="146" r="0.9" fill="#2A2A2A" stroke="none"></circle>
    
    <path d="M22 152 L18 146 L26 144"></path>
    
    <path d="M22 168 L226 168 L224 184 L24 184 Z" fill="#FFFEF8"></path>
    <path d="M22 184 L224 184 L220 200 L28 200 Z" fill="#FFFEF8"></path>
    
    <line x1="22" y1="184" x2="224" y2="184" stroke-width="1"></line>
    
    <line x1="28" y1="178" x2="220" y2="178" stroke-width="0.6" opacity="0.5"></line>
    <line x1="32" y1="194" x2="218" y2="194" stroke-width="0.6" opacity="0.55"></line>
    
    <g fill="#2A2A2A" stroke="none">
      <circle cx="150" cy="128" r="0.7"></circle><circle cx="160" cy="124" r="0.7"></circle><circle cx="170" cy="124" r="0.7"></circle><circle cx="180" cy="128" r="0.7"></circle><circle cx="156" cy="134" r="0.7"></circle><circle cx="166" cy="132" r="0.7"></circle><circle cx="176" cy="132" r="0.7"></circle><circle cx="186" cy="134" r="0.7"></circle>
    </g>
  </g>
</svg>